<?xml version="1.0" standalone="no"?>
<!DOCTYPE svg PUBLIC "-//W3C//DTD SVG 20010904//EN"
 "http://www.w3.org/TR/2001/REC-SVG-20010904/DTD/svg10.dtd">
<svg version="1.0" xmlns="http://www.w3.org/2000/svg"
 width="960.000000pt" height="960.000000pt" viewBox="0 0 960.000000 960.000000"
 preserveAspectRatio="xMidYMid meet">
<metadata>
Created by potrace 1.11, written by Peter Selinger 2001-2013
</metadata>
<g transform="translate(0.000000,960.000000) scale(0.100000,-0.100000)"
fill="#000000" stroke="none">
<path d="M4685 8652 c-11 -2 -24 -10 -30 -18 -5 -7 -32 -16 -60 -19 -27 -3
-90 -10 -140 -15 -115 -13 -167 -25 -180 -43 -5 -8 -20 -17 -33 -21 -12 -4
-22 -14 -22 -23 0 -19 -23 -39 -72 -59 -21 -9 -38 -19 -38 -23 1 -3 11 -19 24
-35 21 -25 28 -28 62 -22 56 10 127 9 228 -4 72 -9 93 -15 111 -34 32 -35 66
-53 110 -60 34 -5 45 -2 68 20 34 31 33 67 0 72 -24 4 -27 12 -17 50 5 16 14
22 35 22 18 0 37 9 50 25 12 13 34 27 48 30 46 10 60 85 15 85 -6 0 -24 18
-39 40 -29 42 -48 47 -120 32z"/>
<path d="M4125 8614 c-11 -3 -29 -9 -40 -14 -11 -5 -37 -11 -58 -15 -23 -4
-40 -13 -44 -23 -3 -9 -13 -25 -21 -34 -12 -14 -12 -20 -2 -33 7 -8 21 -15 32
-15 16 0 19 -5 15 -21 -3 -11 -3 -27 0 -35 7 -19 43 -18 43 1 0 8 9 20 20 27
11 7 20 18 20 25 0 7 9 13 20 13 10 0 24 9 30 20 6 11 21 20 33 20 36 0 49 14
45 51 -3 31 -6 34 -38 36 -19 0 -44 -1 -55 -3z"/>
<path d="M3788 8439 c-12 -6 -18 -22 -17 -42 0 -30 1 -31 11 -10 6 12 20 23
32 25 24 3 29 31 6 35 -8 2 -23 -2 -32 -8z"/>
<path d="M3667 8353 c-17 -17 -6 -34 20 -31 36 4 45 38 10 38 -13 0 -27 -3
-30 -7z"/>
<path d="M5835 8322 c-16 -4 -30 -13 -29 -20 2 -28 5 -32 19 -32 8 0 15 -3 15
-6 0 -12 -30 -34 -47 -34 -10 0 -31 -9 -48 -20 -22 -15 -47 -20 -96 -20 -60 0
-68 -3 -83 -25 -9 -13 -16 -33 -16 -44 0 -11 -11 -32 -25 -47 -42 -45 -34
-126 20 -189 25 -30 26 -30 41 -10 11 14 14 32 10 57 l-6 37 42 3 c40 3 45 6
65 49 27 57 104 129 137 129 26 0 43 15 27 24 -5 3 -14 19 -19 35 l-10 28 42
-4 c22 -3 50 -14 62 -24 12 -11 35 -19 56 -19 46 0 68 -8 68 -26 0 -11 18 -14
79 -14 71 0 80 2 86 20 9 27 70 28 85 1 6 -12 26 -22 49 -26 22 -4 42 -13 45
-21 3 -8 19 -14 41 -14 23 0 38 -6 42 -15 3 -9 19 -23 36 -31 17 -9 46 -32 65
-50 39 -38 52 -39 67 -6 19 42 72 14 176 -91 20 -20 38 -27 69 -29 23 -1 44
-7 47 -13 2 -7 22 -15 44 -19 30 -5 42 -12 49 -31 5 -14 16 -25 25 -25 8 0 15
-7 15 -15 0 -8 -6 -15 -14 -15 -18 0 -31 -33 -15 -39 6 -2 21 -13 33 -25 11
-11 24 -22 29 -22 4 -1 12 -2 17 -3 6 0 20 -12 32 -26 27 -31 46 -32 50 -3 4
27 26 35 35 12 4 -10 0 -22 -10 -29 -21 -15 -22 -35 -2 -35 8 0 15 7 15 15 0
9 9 15 21 15 17 0 20 -5 16 -20 -4 -17 0 -22 24 -27 34 -6 38 -18 9 -26 -24
-6 -27 -42 -4 -51 9 -4 18 -5 18 -4 1 2 7 14 13 28 10 22 12 23 18 7 5 -11 1
-25 -9 -36 -13 -14 -14 -21 -5 -26 7 -5 16 -1 21 9 5 9 16 16 24 16 8 0 19 11
24 25 11 28 47 34 56 10 4 -8 12 -15 20 -15 8 0 14 7 14 15 0 8 -4 15 -8 15
-17 0 -82 98 -76 114 9 24 66 21 82 -4 7 -11 22 -20 35 -20 27 0 44 -11 49
-30 2 -8 10 -20 18 -27 12 -9 13 -14 3 -24 -7 -7 -13 -19 -13 -26 0 -18 27
-16 34 2 9 24 34 18 48 -12 17 -34 34 -40 41 -13 6 24 -45 90 -69 90 -8 0 -13
5 -12 12 2 6 -9 18 -24 25 -16 8 -28 18 -28 23 0 17 -47 60 -65 60 -32 0 -97
24 -102 37 -3 7 -16 13 -28 13 -42 0 -55 10 -49 38 3 15 1 39 -5 55 -9 23 -16
27 -51 27 -29 0 -40 4 -40 15 0 9 -7 18 -15 21 -8 3 -17 14 -20 24 -3 10 -17
21 -30 24 -14 4 -25 13 -25 21 0 19 -9 19 -34 0 -23 -17 -66 -20 -66 -4 0 16
-62 69 -82 69 -9 0 -23 9 -30 19 -9 13 -32 21 -71 26 -31 4 -60 11 -62 16 -3
4 -17 4 -31 -1 -34 -13 -98 -13 -128 1 -20 9 -28 9 -41 -4 -18 -19 -73 -13
-91 9 -6 8 -26 14 -45 14 -49 0 -79 10 -79 26 0 8 -11 19 -24 23 -14 6 -25 20
-29 38 -10 49 -34 55 -211 55 -145 0 -163 2 -182 19 -24 22 -74 31 -119 21z
m815 -276 c0 -3 -4 -8 -10 -11 -5 -3 -10 -1 -10 4 0 6 5 11 10 11 6 0 10 -2
10 -4z m600 -196 c0 -5 11 -20 25 -33 21 -19 24 -29 19 -55 -7 -34 -34 -45
-34 -14 0 29 -29 62 -56 62 -29 0 -34 36 -6 43 31 8 52 7 52 -3z m-90 -110 c0
-17 -4 -19 -27 -14 -35 8 -37 10 -28 23 3 6 17 11 31 11 17 0 24 -5 24 -20z
m43 -45 c-6 -18 -19 -19 -29 -4 -7 12 15 31 28 23 4 -3 5 -11 1 -19z"/>
<path d="M3641 8304 c0 -11 3 -14 6 -6 3 7 2 16 -1 19 -3 4 -6 -2 -5 -13z"/>
<path d="M4783 8304 c-8 -20 17 -36 34 -22 10 8 10 14 2 24 -15 18 -28 18 -36
-2z"/>
<path d="M3552 8272 c-7 -2 -12 -10 -12 -17 0 -8 -9 -19 -20 -25 -11 -6 -20
-17 -20 -26 0 -8 -7 -17 -15 -20 -8 -4 -15 -12 -15 -20 0 -7 -13 -23 -30 -36
-32 -23 -40 -62 -16 -71 15 -6 36 11 36 30 0 7 9 17 20 23 11 6 20 17 20 25 0
8 9 15 20 15 13 0 20 7 20 20 0 10 9 24 20 30 11 6 20 17 20 25 0 8 9 15 20
15 31 0 24 27 -8 32 -16 2 -34 2 -40 0z"/>
<path d="M4147 8274 c-19 -20 -5 -34 34 -34 33 0 40 3 37 18 -3 17 -57 30 -71
16z"/>
<path d="M4445 8233 c-22 -3 -48 -11 -57 -20 -9 -8 -47 -19 -84 -23 -44 -6
-70 -14 -76 -24 -5 -10 -22 -16 -42 -16 -19 0 -43 -9 -56 -20 -13 -11 -34 -23
-47 -26 -32 -8 -30 -42 2 -50 14 -3 38 -4 53 -1 34 7 84 -2 76 -14 -3 -5 -47
-9 -98 -9 -64 0 -97 -4 -104 -13 -16 -19 -1 -34 40 -42 32 -6 38 -12 45 -43 8
-33 12 -37 45 -40 32 -3 37 0 40 20 3 22 8 23 73 23 55 0 73 -4 83 -17 7 -10
25 -18 38 -18 34 0 26 24 -10 28 -21 3 -27 8 -24 25 3 20 9 22 68 22 55 0 65
-3 68 -18 3 -12 -4 -20 -17 -24 -12 -3 -21 -11 -21 -17 0 -6 -9 -19 -20 -29
-27 -23 -29 -110 -2 -105 12 2 18 15 20 46 3 34 7 43 20 40 9 -2 19 -14 20
-28 6 -39 20 -46 33 -17 7 15 20 27 29 27 24 0 40 20 40 51 0 15 4 30 9 33 11
7 20 66 14 84 -3 7 -23 12 -48 12 -75 0 -86 15 -15 20 l65 5 6 60 c8 73 -7 99
-68 114 -23 6 -45 10 -50 9 -4 -1 -26 -3 -48 -5z m-100 -193 c-8 -13 -45 -13
-65 0 -11 7 -3 10 28 10 26 0 41 -4 37 -10z m87 -2 c-9 -9 -15 -9 -24 0 -9 9
-7 12 12 12 19 0 21 -3 12 -12z"/>
<path d="M4100 8215 c0 -8 7 -15 15 -15 8 0 15 7 15 15 0 8 -7 15 -15 15 -8 0
-15 -7 -15 -15z"/>
<path d="M4746 8223 c-11 -11 -6 -23 9 -23 8 0 15 4 15 9 0 13 -16 22 -24 14z"/>
<path d="M4060 8170 c0 -13 5 -20 13 -17 6 2 12 10 12 17 0 7 -6 15 -12 18 -8
2 -13 -5 -13 -18z"/>
<path d="M4021 8136 c-12 -14 -5 -26 16 -26 15 0 18 26 4 34 -5 3 -14 0 -20
-8z"/>
<path d="M5945 8130 c-8 -13 3 -50 16 -50 12 0 12 47 0 55 -5 3 -12 1 -16 -5z"/>
<path d="M3983 8103 c-18 -7 -16 -43 2 -43 18 0 31 28 19 39 -5 5 -15 6 -21 4z"/>
<path d="M5392 8097 c-10 -11 -9 -17 2 -26 23 -19 61 -10 61 14 0 25 -46 33
-63 12z"/>
<path d="M3204 8005 c-11 -27 8 -36 49 -24 47 13 43 33 -6 37 -27 2 -39 -1
-43 -13z"/>
<path d="M3320 8003 c0 -10 7 -27 16 -38 15 -20 15 -20 33 3 12 17 25 22 46
20 21 -2 30 2 33 15 3 15 -5 17 -62 17 -56 0 -66 -3 -66 -17z"/>
<path d="M3890 7995 c0 -28 8 -30 45 -13 37 17 32 38 -10 38 -31 0 -35 -3 -35
-25z"/>
<path d="M3580 8000 c0 -6 27 -10 60 -10 33 0 60 4 60 10 0 6 -27 10 -60 10
-33 0 -60 -4 -60 -10z"/>
<path d="M2917 7987 c-4 -10 -17 -17 -32 -17 -16 0 -25 -6 -25 -16 0 -13 7
-15 38 -9 46 8 44 7 34 35 -7 20 -10 21 -15 7z"/>
<path d="M2822 7914 c4 -21 22 -23 26 -1 2 10 -3 17 -13 17 -10 0 -15 -6 -13
-16z"/>
<path d="M3030 7912 c0 -12 -9 -22 -21 -25 -35 -9 -16 -32 27 -32 38 0 39 1
39 35 0 29 -4 36 -22 38 -17 3 -23 -2 -23 -16z"/>
<path d="M4940 7886 c-64 -33 -155 -97 -152 -107 2 -9 -26 -50 -129 -194 -28
-38 -58 -81 -67 -95 -32 -50 -56 -70 -83 -70 -32 0 -48 -17 -25 -26 9 -3 16
-11 16 -18 0 -6 -45 -72 -100 -146 -54 -74 -115 -159 -135 -187 -34 -51 -38
-53 -81 -53 -32 0 -44 -4 -44 -15 0 -10 10 -15 34 -15 31 0 53 -20 42 -38 -13
-22 -14 -87 -1 -136 25 -96 68 -149 195 -241 208 -150 258 -176 349 -183 59
-4 73 -1 131 27 36 17 77 42 92 56 24 21 208 266 483 645 44 60 81 110 83 110
3 0 95 -65 155 -109 28 -21 45 -41 42 -49 -3 -7 -32 -50 -65 -95 -157 -214
-223 -304 -319 -440 -58 -81 -108 -147 -113 -147 -4 0 -27 13 -50 29 -49 34
-55 32 -105 -42 -15 -23 -52 -75 -82 -115 l-55 -74 30 -27 c134 -124 284 -159
410 -95 65 33 101 70 217 229 86 118 108 147 328 455 140 194 169 254 169 345
0 55 -6 79 -31 130 -16 34 -44 75 -62 91 -59 54 -314 233 -358 251 -68 27
-182 24 -241 -6 -94 -48 -103 -59 -512 -628 -49 -68 -92 -124 -97 -124 -5 -1
-15 -2 -21 -3 -7 -1 -12 -10 -11 -21 4 -30 -13 -52 -31 -40 -103 72 -134 101
-129 122 4 18 -1 23 -26 30 l-32 8 48 65 c26 36 86 117 133 181 84 114 105
143 236 329 37 52 72 98 77 102 9 6 52 -19 85 -50 8 -7 17 -10 20 -8 15 9 202
260 202 270 0 13 -161 116 -203 130 -70 23 -162 20 -217 -8z"/>
<path d="M3250 7864 c0 -9 5 -14 12 -12 18 6 21 28 4 28 -9 0 -16 -7 -16 -16z"/>
<path d="M3396 7834 c-9 -9 -29 -19 -44 -23 -25 -7 -27 -11 -24 -53 3 -33 -1
-50 -13 -59 -9 -8 -26 -24 -37 -36 -11 -12 -34 -25 -49 -28 -36 -8 -37 -32 -3
-45 l26 -10 -7 -95 -7 -95 28 0 c15 0 35 6 43 14 10 9 46 15 101 17 l85 4 5
-45 c3 -25 8 -44 13 -42 4 1 12 2 17 2 6 0 10 16 10 35 0 23 6 37 19 44 10 6
21 24 24 40 4 18 14 32 28 36 12 4 33 19 46 33 17 18 36 26 73 30 62 6 73 19
25 28 -26 4 -39 14 -45 30 -9 22 -15 24 -84 24 -79 0 -93 7 -76 40 7 13 7 26
1 37 -5 10 -12 26 -15 36 -3 9 -14 17 -25 17 -20 0 -51 39 -51 65 0 20 -44 20
-64 -1z m134 -219 c0 -9 -17 -14 -50 -17 -59 -4 -70 -1 -70 17 0 10 16 15 53
17 60 3 67 2 67 -17z m-155 -40 c0 -12 -70 -19 -93 -10 -14 5 -14 7 -2 16 19
12 95 7 95 -6z"/>
<path d="M2440 7830 c0 -5 7 -10 15 -10 8 0 15 5 15 10 0 6 -7 10 -15 10 -8 0
-15 -4 -15 -10z"/>
<path d="M2780 7830 c0 -5 7 -10 15 -10 8 0 15 5 15 10 0 6 -7 10 -15 10 -8 0
-15 -4 -15 -10z"/>
<path d="M4665 7830 c3 -5 8 -10 11 -10 2 0 4 5 4 10 0 6 -5 10 -11 10 -5 0
-7 -4 -4 -10z"/>
<path d="M7380 7820 c0 -5 7 -10 15 -10 8 0 15 5 15 10 0 6 -7 10 -15 10 -8 0
-15 -4 -15 -10z"/>
<path d="M3211 7801 c-11 -20 -5 -31 16 -31 7 0 13 11 13 25 0 29 -15 33 -29
6z"/>
<path d="M3760 7800 c-12 -7 -12 -12 -2 -22 9 -9 15 -9 24 0 16 16 -2 34 -22
22z"/>
<path d="M2395 7790 c-3 -5 1 -10 9 -10 9 0 16 5 16 10 0 6 -4 10 -9 10 -6 0
-13 -4 -16 -10z"/>
<path d="M2740 7784 c0 -9 5 -14 12 -12 18 6 21 28 4 28 -9 0 -16 -7 -16 -16z"/>
<path d="M3716 7754 c-8 -20 1 -34 20 -34 8 0 14 10 14 25 0 28 -24 34 -34 9z"/>
<path d="M4291 7763 c-14 -3 -34 -11 -45 -18 -12 -7 -39 -16 -61 -20 -41 -7
-85 -44 -85 -71 0 -9 -9 -18 -20 -21 -11 -3 -20 -14 -20 -24 0 -17 8 -19 64
-19 51 0 65 3 71 18 6 15 8 14 16 -7 6 -16 6 -28 -1 -35 -15 -15 -123 -13
-153 3 -22 12 -28 12 -41 -2 -9 -8 -29 -18 -46 -22 -36 -8 -37 -11 -7 -35 l22
-19 -32 -30 c-18 -16 -41 -31 -50 -33 -10 -2 -18 -12 -18 -23 0 -16 8 -21 40
-25 52 -7 54 -32 3 -44 -43 -11 -48 -21 -15 -30 37 -10 47 -7 47 14 0 15 7 20
29 20 61 0 81 23 35 40 -42 16 -23 35 37 36 65 1 98 10 122 35 10 11 32 19 52
19 24 0 40 8 58 29 17 20 43 34 88 47 35 10 73 23 84 30 11 6 37 15 58 18 54
10 48 32 -12 38 -64 6 -111 -1 -111 -17 0 -18 -23 -25 -81 -25 -43 0 -49 3
-49 20 0 11 7 23 15 26 8 4 15 12 15 19 0 17 49 70 73 78 51 19 -17 43 -82 30z"/>
<path d="M3170 7735 c1 -26 2 -28 11 -12 8 14 8 22 0 30 -8 8 -11 3 -11 -18z"/>
<path d="M2660 7661 c0 -12 5 -21 10 -21 6 0 10 6 10 14 0 8 -4 18 -10 21 -5
3 -10 -3 -10 -14z"/>
<path d="M3118 7656 c-7 -13 -21 -37 -30 -54 -17 -30 -15 -62 3 -62 5 0 12 8
16 18 3 9 17 26 30 37 19 16 22 26 17 53 -8 38 -18 41 -36 8z"/>
<path d="M2723 7570 c-3 -11 -9 -18 -13 -15 -4 3 -10 -4 -13 -15 -6 -22 8 -28
16 -6 3 7 19 16 36 19 39 8 43 37 5 37 -17 0 -28 -6 -31 -20z"/>
<path d="M2835 7581 c-25 -5 -27 -8 -12 -14 26 -10 105 -9 111 2 5 7 -45 23
-63 20 -3 -1 -19 -4 -36 -8z"/>
<path d="M2610 7567 c0 -8 -11 -19 -25 -25 -19 -9 -25 -19 -25 -42 0 -35 25
-42 35 -10 3 11 17 23 31 26 26 7 27 8 18 42 -7 24 -34 31 -34 9z"/>
<path d="M5370 7570 c20 -13 40 -13 40 0 0 6 -12 10 -27 10 -22 0 -25 -2 -13
-10z"/>
<path d="M7270 7570 c0 -5 7 -10 16 -10 8 0 12 5 9 10 -3 6 -10 10 -16 10 -5
0 -9 -4 -9 -10z"/>
<path d="M2955 7491 c-6 -11 9 -23 19 -14 9 9 7 23 -3 23 -6 0 -12 -4 -16 -9z"/>
<path d="M7730 7466 c0 -47 30 -50 47 -6 9 24 9 30 -2 30 -7 0 -20 3 -29 6
-13 5 -16 -1 -16 -30z"/>
<path d="M2305 7450 c-8 -12 20 -24 35 -15 6 3 8 11 5 16 -8 12 -32 12 -40 -1z"/>
<path d="M2522 7403 c2 -44 7 -58 18 -58 15 0 17 39 5 93 -11 45 -26 22 -23
-35z"/>
<path d="M4350 7444 c0 -11 9 -14 37 -12 52 4 56 28 4 28 -30 0 -41 -4 -41
-16z"/>
<path d="M7560 7430 c-12 -30 -12 -34 6 -47 17 -13 19 -12 22 9 2 13 -1 34 -6
47 -8 23 -9 23 -22 -9z"/>
<path d="M7810 7435 c0 -17 5 -25 13 -22 6 2 12 12 12 22 0 10 -6 20 -12 23
-8 2 -13 -6 -13 -23z"/>
<path d="M2431 7421 c-19 -12 -6 -41 19 -41 25 0 38 29 19 41 -8 5 -16 9 -19
9 -3 0 -11 -4 -19 -9z"/>
<path d="M2140 7406 c0 -17 27 -29 35 -16 4 6 3 15 0 20 -9 15 -35 12 -35 -4z"/>
<path d="M2910 7385 c0 -36 13 -47 24 -19 7 18 47 16 54 -3 2 -7 -8 -17 -23
-23 -17 -7 -25 -16 -23 -27 4 -24 29 -26 55 -5 23 18 26 28 24 80 l-1 32 -55
0 -55 0 0 -35z"/>
<path d="M3770 7395 c0 -8 5 -15 10 -15 6 0 10 7 10 15 0 8 -4 15 -10 15 -5 0
-10 -7 -10 -15z"/>
<path d="M4107 7394 c-13 -13 -7 -44 8 -44 16 0 17 5 6 33 -3 10 -10 15 -14
11z"/>
<path d="M2096 7371 c-9 -14 5 -42 18 -38 18 6 20 47 2 47 -8 0 -17 -4 -20 -9z"/>
<path d="M7426 7364 c-3 -9 -6 -27 -6 -40 0 -19 5 -24 25 -24 20 0 25 5 25 24
0 34 -10 56 -25 56 -7 0 -16 -7 -19 -16z"/>
<path d="M7602 7358 c3 -7 14 -14 25 -16 14 -2 23 -13 27 -34 6 -31 -3 -55
-11 -30 -3 7 -22 12 -46 12 -59 0 -72 -23 -57 -97 7 -30 10 -63 7 -74 -3 -10
4 -30 15 -44 10 -14 16 -30 13 -36 -16 -26 50 -122 90 -131 11 -2 19 -10 18
-16 -2 -7 2 -12 7 -12 6 0 6 -7 -2 -19 -9 -15 -7 -25 11 -55 25 -40 58 -61
114 -71 81 -15 2 -38 -89 -26 -65 9 -84 6 -84 -14 0 -8 -9 -17 -21 -20 -14 -5
-19 -13 -16 -26 3 -10 2 -17 -3 -14 -4 3 -24 -10 -44 -28 -37 -35 -47 -71 -21
-81 26 -10 16 -26 -15 -26 -19 0 -30 5 -30 14 0 7 -16 31 -35 52 -32 34 -42
39 -93 44 -47 4 -57 8 -60 25 -2 11 -20 35 -39 53 -30 28 -39 32 -62 24 -25
-8 -26 -12 -29 -89 -3 -74 -1 -81 17 -86 12 -3 25 -17 31 -31 5 -14 13 -26 17
-26 5 0 14 -13 21 -30 8 -16 19 -30 27 -30 7 0 15 -17 18 -41 3 -23 14 -49 25
-59 11 -11 22 -25 26 -32 4 -9 10 -7 22 10 9 12 23 22 30 22 8 0 14 7 14 15 0
9 11 20 24 24 13 5 26 16 29 25 3 8 14 14 24 14 10 -1 35 2 57 6 29 6 42 3 57
-10 11 -10 19 -12 19 -6 0 7 9 12 21 12 31 0 18 -23 -19 -32 -38 -10 -42 -35
-7 -48 14 -5 25 -16 25 -25 0 -8 7 -15 15 -15 9 0 15 -9 15 -24 0 -17 -7 -26
-25 -30 -14 -4 -25 -13 -25 -20 0 -8 -14 -18 -32 -21 -26 -6 -35 -4 -46 14 -8
11 -20 21 -28 21 -7 0 -16 9 -19 20 -5 16 -15 20 -47 20 -31 0 -39 -3 -35 -14
5 -11 -6 -17 -41 -22 -26 -4 -52 -13 -58 -21 -9 -13 -12 -13 -23 1 -11 14 -11
16 3 16 10 0 16 8 16 23 0 16 -3 18 -9 8 -6 -10 -12 -5 -22 18 -11 24 -22 32
-57 40 -28 6 -55 5 -78 -2 -35 -11 -46 -27 -19 -27 8 0 15 -7 15 -15 0 -19 29
-19 57 0 26 18 52 10 50 -16 -1 -14 -9 -19 -29 -19 -24 0 -28 -4 -28 -29 0
-16 -6 -31 -12 -34 -7 -3 6 -2 30 0 43 6 54 -4 28 -26 -26 -22 -55 -20 -86 5
-25 21 -32 23 -43 12 -22 -23 -47 -67 -47 -83 0 -8 -16 -21 -35 -29 -19 -8
-38 -22 -41 -31 -3 -8 -12 -15 -20 -15 -8 0 -14 -6 -14 -14 0 -10 -14 -16 -42
-19 l-43 -4 43 -1 c53 -2 56 -22 2 -22 -22 0 -40 -4 -40 -10 0 -5 -18 -10 -40
-10 -36 0 -40 -2 -40 -25 0 -22 -4 -25 -37 -25 -31 0 -40 -5 -50 -27 -14 -29
0 -59 20 -46 10 6 19 8 62 15 6 0 20 -2 33 -6 20 -7 22 -4 22 31 0 47 15 77
26 50 3 -9 12 -17 19 -17 33 0 23 -56 -11 -64 -15 -4 -24 -14 -24 -26 0 -15
-8 -19 -37 -22 -29 -2 -39 -8 -41 -23 -6 -30 -18 -38 -41 -26 -17 9 -21 9 -21
-3 0 -8 6 -17 13 -19 6 -3 1 -6 -11 -6 -15 -1 -26 -9 -29 -21 -10 -36 -39 -20
-49 27 -1 7 -15 24 -31 38 -18 17 -24 28 -16 31 7 3 17 21 24 41 9 27 14 32
21 22 8 -12 9 -11 6 1 -5 16 -45 29 -65 22 -7 -2 -13 -17 -13 -32 0 -16 -6
-35 -13 -42 -7 -7 -19 -29 -27 -48 -14 -34 -27 -50 -43 -50 -5 0 -6 4 -3 9 3
4 -6 6 -19 3 -14 -2 -25 -9 -25 -14 0 -6 7 -8 14 -5 9 4 17 -2 21 -14 8 -25
31 -24 45 1 6 11 15 20 20 20 14 0 69 -62 70 -77 0 -6 6 -13 13 -16 9 -3 9 -7
0 -17 -15 -17 -44 -5 -50 20 -7 25 -39 26 -48 3 -11 -34 -72 -63 -131 -63 -41
0 -54 -4 -54 -15 0 -8 -4 -15 -10 -15 -5 0 -10 7 -10 15 0 11 -11 15 -40 15
-38 0 -40 -1 -41 -32 -1 -18 0 -48 1 -65 2 -40 -12 -42 -46 -8 -29 29 -34 30
-34 11 0 -7 -11 -21 -25 -30 -14 -9 -25 -24 -25 -34 0 -10 -10 -26 -21 -36
-18 -15 -23 -16 -31 -5 -7 11 -11 11 -15 2 -2 -7 -13 -13 -24 -13 -11 0 -19
-7 -20 -17 0 -11 -3 -13 -6 -5 -2 6 -9 12 -15 12 -6 0 -8 -7 -4 -15 3 -9 0
-15 -9 -15 -10 0 -15 -11 -15 -35 0 -19 -4 -35 -9 -35 -5 0 -14 -12 -19 -27
-7 -18 -11 -22 -11 -10 -1 20 -12 22 -29 5 -9 -9 -12 -9 -12 0 0 6 9 17 20 24
11 7 20 21 20 30 0 10 5 18 10 18 7 0 7 6 0 19 -13 25 -13 41 1 41 6 0 9 -6 6
-14 -4 -9 0 -12 13 -9 10 3 17 10 14 17 -3 7 4 21 16 31 11 10 20 25 20 32 0
11 8 13 33 9 17 -3 25 -3 17 0 -36 15 -41 27 -18 38 13 6 29 24 37 40 12 27
11 30 -14 52 -21 18 -32 21 -45 14 -22 -12 -46 -4 -54 16 -3 8 -12 14 -19 14
-8 0 -33 14 -55 30 -23 17 -46 30 -52 30 -15 0 -44 -50 -34 -58 5 -5 34 -29
66 -55 31 -26 59 -47 63 -47 3 0 12 -6 19 -12 11 -11 11 -15 -2 -24 -12 -9
-24 -5 -56 18 -71 50 -115 78 -124 78 -17 0 -44 -39 -38 -55 3 -8 17 -20 31
-25 31 -12 32 -28 2 -35 -12 -3 -33 -23 -47 -43 -14 -20 -32 -44 -41 -52 -9
-8 -15 -27 -15 -42 1 -21 -2 -27 -14 -23 -24 7 -90 -92 -90 -134 0 -20 6 -34
16 -38 9 -3 19 -15 23 -27 5 -11 16 -21 26 -21 10 0 20 -6 23 -14 3 -10 0 -12
-12 -8 -9 4 -16 2 -16 -3 0 -18 -15 -10 -25 12 -13 29 -35 35 -35 10 0 -11 7
-22 15 -24 12 -2 10 -9 -9 -33 l-24 -30 -13 27 c-6 15 -25 33 -41 40 -15 7
-28 16 -28 20 0 5 -14 8 -31 8 -19 0 -28 -4 -24 -11 4 -5 -1 -19 -11 -30 -17
-18 -17 -20 2 -34 19 -14 19 -14 -1 -15 -14 0 -16 -3 -7 -9 18 -11 -38 -70
-89 -93 -21 -9 -39 -24 -39 -33 0 -19 -16 -20 -24 0 -9 26 -36 18 -36 -11 0
-14 -6 -32 -14 -40 -17 -16 -46 -19 -46 -4 0 6 -18 10 -40 10 -41 0 -44 -3
-40 -52 1 -19 -5 -28 -21 -33 -12 -4 -17 -10 -12 -14 6 -3 7 -15 3 -27 -7 -18
-17 -21 -70 -23 -56 -1 -64 1 -88 27 -33 35 -62 47 -62 27 0 -8 -13 -28 -29
-44 -29 -29 -42 -77 -38 -131 2 -22 -2 -25 -34 -25 -20 0 -43 -6 -52 -14 -9
-7 -26 -11 -38 -8 -18 5 -20 2 -13 -26 l7 -32 -28 28 c-15 15 -31 27 -36 27
-5 0 -6 7 -3 15 4 9 0 15 -10 15 -9 0 -16 -5 -16 -11 0 -13 -30 -44 -44 -44
-5 0 -13 -10 -16 -23 -3 -13 -9 -22 -15 -20 -11 3 -22 -39 -24 -89 -1 -31 1
-33 33 -33 42 0 43 -1 54 -76 5 -32 15 -60 21 -62 8 -3 7 -10 -1 -25 -7 -12
-15 -47 -19 -77 -4 -30 -9 -64 -12 -75 -3 -11 -6 -24 -6 -28 -1 -5 -9 -7 -18
-6 -37 3 -53 -1 -53 -15 0 -8 9 -18 20 -21 17 -5 20 -15 20 -68 0 -50 4 -66
20 -80 11 -9 20 -25 20 -34 0 -12 -3 -14 -8 -6 -12 18 -44 19 -55 1 -9 -14 -7
-22 12 -41 22 -25 22 -25 3 -43 -28 -26 -91 -122 -98 -148 -7 -28 37 -70 74
-72 23 -1 26 -5 29 -38 2 -38 2 -38 -18 -20 -11 10 -35 18 -54 18 -28 0 -34 3
-32 21 1 15 -5 21 -24 23 -21 2 -35 -8 -72 -52 -56 -65 -60 -95 -16 -126 22
-16 39 -21 60 -16 27 5 29 4 19 -14 -8 -16 -8 -22 4 -26 29 -11 51 2 89 53 34
45 41 50 57 40 27 -16 74 35 67 71 -5 28 7 64 35 101 26 34 22 64 -12 99 -51
54 -31 72 30 27 19 -14 44 -25 57 -25 13 0 24 -6 24 -12 6 -56 8 -157 4 -175
-4 -15 -13 -23 -25 -23 -13 0 -20 -7 -20 -18 0 -11 -9 -27 -19 -36 -11 -10
-22 -28 -25 -42 -5 -17 -13 -24 -30 -24 -49 0 -56 -8 -56 -70 0 -50 -3 -60
-20 -65 -14 -4 -20 -15 -20 -34 0 -15 -4 -31 -10 -37 -15 -15 -80 -5 -80 12 0
8 -13 17 -30 21 -34 6 -39 26 -14 61 9 13 14 25 13 26 -141 109 -158 116 -201
79 -14 -12 -23 -13 -53 -3 -20 7 -41 20 -48 31 -6 10 -19 19 -28 19 -9 0 -19
6 -22 14 -3 8 -22 22 -41 31 -20 10 -36 21 -36 26 0 5 -9 9 -21 9 -13 0 -23 8
-26 20 -6 22 -37 34 -74 28 -32 -4 -34 -23 -4 -36 14 -7 31 -16 38 -22 52 -44
93 -70 108 -70 11 0 19 -7 19 -15 0 -9 8 -19 17 -22 9 -4 25 -15 34 -24 10
-10 29 -21 43 -25 27 -6 41 -41 24 -61 -15 -19 10 -46 38 -40 16 3 20 0 17
-13 -3 -10 9 -27 31 -44 20 -15 36 -24 36 -20 0 3 6 1 14 -5 10 -8 20 -6 40
10 20 16 30 19 39 10 6 -6 23 -11 37 -11 14 0 31 -5 38 -12 19 -19 15 -66 -7
-77 -10 -6 -24 -23 -30 -38 -22 -53 -42 -83 -56 -83 -7 0 -17 -15 -21 -32 -3
-18 -15 -39 -25 -46 -11 -7 -19 -19 -19 -27 0 -8 -9 -19 -20 -25 -11 -6 -20
-17 -20 -25 0 -8 -9 -19 -19 -25 -11 -5 -22 -23 -26 -40 -4 -16 -13 -30 -21
-30 -8 0 -19 -10 -25 -23 -14 -30 -32 -62 -47 -80 -17 -21 -60 -27 -66 -10 -3
7 -17 18 -31 23 -14 5 -25 14 -25 19 0 6 -18 16 -40 22 -31 10 -40 17 -40 35
0 31 17 39 40 19 24 -22 54 -16 58 12 3 17 -15 34 -84 82 -48 34 -95 61 -105
61 -10 0 -31 -17 -48 -37 l-31 -37 -29 22 c-17 12 -35 22 -41 22 -5 0 -10 5
-10 11 0 5 -13 15 -30 20 -16 6 -30 15 -30 19 0 4 -16 15 -35 24 -19 9 -35 21
-35 25 0 4 -11 13 -25 19 -20 9 -25 19 -25 50 0 38 19 71 68 118 12 12 22 25
22 30 1 5 20 33 44 63 25 30 42 60 40 66 -3 7 4 15 15 18 25 6 28 37 4 36 -33
-1 -52 -14 -84 -59 -18 -25 -41 -51 -51 -58 -10 -7 -18 -18 -18 -23 0 -5 -18
-29 -40 -51 -22 -23 -40 -48 -40 -55 0 -7 -14 -20 -31 -28 -31 -17 -59 -14
-59 5 0 6 -12 22 -26 35 -19 18 -25 32 -22 49 6 28 -28 66 -99 110 -24 14 -66
44 -95 67 -29 22 -81 62 -115 87 -34 26 -62 53 -63 60 0 7 33 56 72 109 40 53
91 121 112 152 22 31 42 58 46 61 3 3 22 27 41 55 18 27 39 55 44 61 6 6 21
27 35 47 14 20 29 37 33 37 21 0 47 -23 47 -40 0 -11 7 -20 15 -20 18 0 20
-17 3 -23 -7 -2 5 -4 27 -3 25 1 40 6 39 14 -1 6 -2 21 -2 31 -1 12 -21 30
-51 47 -44 25 -48 30 -39 50 6 12 19 25 31 28 13 3 18 10 14 21 -4 8 1 24 10
35 20 23 39 15 93 -35 64 -60 290 -215 313 -215 17 0 200 257 192 270 -4 6
-22 21 -40 33 -90 60 -317 231 -354 266 -24 23 -47 41 -53 41 -14 0 -293 197
-467 329 -68 52 -143 94 -176 98 -106 14 -173 3 -245 -42 -19 -12 -43 -24 -53
-28 -9 -3 -17 -12 -17 -18 0 -7 -20 -40 -45 -73 -132 -178 -253 -346 -280
-385 -16 -25 -49 -65 -72 -90 -24 -25 -43 -49 -43 -54 0 -5 -31 -53 -69 -106
-77 -107 -96 -147 -105 -217 -4 -27 -13 -54 -21 -60 -11 -8 -13 -22 -9 -45 4
-25 3 -30 -4 -19 -8 10 -11 3 -14 -30 -3 -42 -5 -45 -30 -42 -32 4 -46 -14
-18 -23 27 -9 25 -37 -5 -73 -14 -17 -25 -34 -25 -40 0 -5 -7 -15 -15 -22 -8
-7 -15 -25 -15 -41 l0 -28 35 20 c30 18 35 26 35 60 0 32 3 39 20 39 17 0 20
7 20 46 0 25 4 43 8 40 14 -9 30 9 39 44 l9 35 41 -61 c23 -33 54 -69 70 -79
79 -52 349 -259 356 -273 5 -10 23 -24 40 -32 30 -14 32 -19 32 -65 0 -37 -4
-50 -15 -50 -8 0 -16 -9 -19 -20 -2 -11 -12 -31 -22 -44 -11 -13 -19 -32 -19
-42 0 -41 -75 -5 -93 44 -7 20 -33 18 -31 -1 1 -7 2 -21 3 -32 0 -13 8 -20 20
-20 33 0 51 -11 51 -31 0 -11 -7 -22 -15 -25 -8 -3 -17 -21 -21 -40 -3 -19
-12 -34 -20 -34 -7 0 -18 -18 -24 -41 -6 -22 -18 -43 -26 -46 -7 -3 -14 -15
-14 -28 0 -14 -7 -25 -19 -28 -13 -3 -22 -17 -26 -41 -4 -21 -13 -36 -21 -36
-8 0 -14 -7 -14 -15 0 -8 -11 -22 -25 -31 -18 -12 -25 -25 -25 -48 0 -19 -8
-38 -20 -49 -15 -12 -20 -29 -20 -62 0 -38 -3 -45 -19 -45 -16 0 -21 -9 -26
-44 -5 -32 -12 -46 -26 -49 -16 -4 -19 -15 -19 -69 0 -113 34 -120 45 -9 6 56
10 70 26 74 15 4 19 14 19 51 0 33 4 46 14 46 15 0 26 21 26 51 0 10 16 34 36
52 29 26 37 42 41 80 4 34 12 50 29 62 13 8 24 23 24 31 0 9 9 27 20 41 11 14
20 34 20 44 0 12 7 19 19 19 13 0 21 10 25 34 4 19 13 39 21 46 8 7 15 21 15
31 0 14 7 19 29 19 36 0 46 13 29 39 -10 17 -10 23 4 33 9 7 18 22 20 33 2 12
11 20 23 20 13 0 21 9 25 30 4 17 21 45 38 64 l32 33 54 -32 c30 -18 67 -45
82 -60 60 -56 346 -260 364 -260 5 0 28 26 51 58 100 136 90 127 108 105 9
-11 28 -23 43 -27 18 -4 30 -16 37 -37 14 -41 15 -38 -14 -49 -15 -6 -25 -17
-25 -29 0 -11 -20 -41 -45 -67 -25 -25 -45 -52 -45 -59 0 -7 -7 -15 -15 -18
-8 -4 -18 -21 -23 -39 -5 -18 -14 -32 -20 -31 -6 2 -16 -6 -22 -18 -7 -11 -20
-29 -31 -40 -10 -10 -19 -28 -19 -39 0 -30 -50 -52 -89 -39 -17 6 -31 17 -31
25 0 8 -8 18 -17 21 -10 4 -22 12 -26 20 -4 7 -15 13 -23 13 -8 0 -19 11 -24
25 -5 14 -18 25 -27 25 -10 0 -24 9 -31 20 -16 26 -62 27 -62 2 0 -19 49 -69
63 -64 4 1 13 -9 19 -23 6 -14 17 -25 24 -25 7 0 18 -8 23 -19 6 -10 23 -21
39 -24 18 -4 31 -14 35 -26 3 -13 13 -21 26 -21 27 0 27 -26 1 -40 -11 -6 -20
-15 -20 -20 0 -12 -62 -110 -69 -110 -4 0 -13 -16 -20 -35 -7 -19 -16 -35 -20
-35 -4 0 -13 -11 -19 -25 -6 -14 -18 -25 -26 -25 -8 0 -16 -10 -18 -22 -2 -18
-11 -24 -37 -28 -37 -5 -53 -26 -27 -36 23 -9 20 -41 -4 -47 -12 -3 -20 -14
-20 -26 0 -12 -6 -21 -15 -21 -9 0 -18 -8 -22 -17 -3 -10 -15 -30 -25 -45 -10
-14 -18 -33 -18 -41 0 -8 -11 -18 -25 -21 -20 -5 -25 -13 -25 -36 0 -19 -7
-33 -20 -40 -11 -6 -20 -20 -20 -31 0 -12 -8 -23 -19 -26 -19 -5 -36 -56 -25
-74 9 -16 44 -10 44 7 0 9 11 27 25 40 14 13 25 33 25 44 0 13 8 24 20 27 11
3 20 14 20 24 0 11 4 19 10 19 5 0 16 15 23 32 8 18 21 39 30 47 10 7 17 19
17 27 0 7 8 19 18 26 10 7 24 28 31 46 7 17 20 32 27 32 23 0 54 38 54 65 0
14 7 28 15 31 8 3 20 21 27 40 6 19 17 34 24 34 7 0 17 14 23 30 5 17 17 30
25 30 9 0 16 5 16 11 0 7 9 21 20 33 11 12 31 33 44 49 31 33 80 37 96 7 6
-11 17 -20 26 -20 8 0 19 -11 24 -25 6 -15 17 -25 29 -25 10 0 24 -6 30 -14 7
-8 25 -18 41 -21 16 -3 30 -14 33 -26 3 -11 14 -19 26 -19 12 0 29 -9 38 -20
10 -11 26 -20 36 -20 10 0 21 -9 24 -20 3 -11 14 -20 24 -20 11 0 29 -11 41
-25 12 -14 32 -25 44 -25 13 0 24 -8 27 -18 5 -21 65 -38 79 -24 18 18 -4 42
-39 42 -26 0 -36 5 -40 20 -3 11 -11 20 -18 20 -7 0 -24 11 -39 25 -15 14 -36
25 -46 25 -11 0 -24 9 -30 20 -6 11 -16 20 -23 20 -7 1 -30 19 -52 40 -22 22
-45 40 -52 40 -6 0 -24 11 -39 25 -15 14 -32 25 -38 25 -6 0 -22 9 -36 20 -14
11 -33 20 -42 20 -11 0 -18 8 -18 20 0 11 -7 20 -15 20 -27 0 -28 28 -1 63 14
19 26 39 26 45 0 7 7 12 15 12 8 0 17 11 21 25 3 14 10 25 15 25 5 0 14 11 19
25 5 14 14 25 20 25 6 0 18 16 26 35 8 19 18 35 23 35 5 0 24 25 41 56 46 80
67 97 110 89 19 -4 45 -18 59 -31 13 -13 30 -24 37 -24 8 0 23 -8 34 -17 11
-10 29 -26 39 -35 11 -9 33 -24 49 -32 35 -18 46 -40 31 -67 -5 -11 -8 -27 -5
-37 5 -14 159 -131 186 -140 5 -2 14 7 21 19 10 20 8 25 -13 44 -25 21 -27 45
-3 45 7 0 15 -7 19 -15 3 -8 12 -15 20 -15 8 0 22 -8 32 -17 9 -10 33 -23 53
-28 32 -9 36 -15 39 -47 2 -28 -1 -39 -16 -47 -11 -6 -25 -24 -32 -41 -7 -16
-18 -30 -25 -30 -6 0 -17 -11 -23 -25 -6 -14 -16 -25 -22 -25 -5 0 -10 -6 -10
-14 0 -7 -20 -38 -45 -68 -25 -30 -45 -60 -45 -66 0 -6 -9 -14 -20 -17 -11 -3
-20 -12 -20 -18 0 -7 -8 -20 -17 -29 -10 -9 -24 -24 -31 -33 -10 -11 -22 -14
-43 -10 -24 6 -29 3 -29 -13 0 -11 7 -22 15 -26 21 -8 19 -29 -5 -44 -11 -7
-20 -19 -20 -26 0 -8 -9 -18 -20 -21 -11 -3 -20 -13 -20 -20 0 -8 -9 -19 -20
-25 -11 -6 -20 -17 -20 -24 0 -7 -11 -23 -25 -36 -14 -13 -25 -29 -25 -36 0
-7 -9 -18 -20 -24 -11 -6 -20 -17 -20 -25 0 -8 -9 -15 -20 -15 -10 0 -25 -10
-31 -22 -11 -20 -13 -20 -24 -5 -15 20 -55 23 -55 3 0 -7 9 -16 20 -19 24 -6
28 -47 5 -47 -9 0 -18 -7 -22 -16 -7 -20 -62 -74 -74 -74 -5 0 -9 -7 -9 -15 0
-9 -8 -19 -17 -22 -10 -4 -24 -15 -31 -25 -7 -10 -19 -18 -26 -18 -8 0 -17 -7
-20 -15 -3 -9 -19 -21 -36 -27 -17 -5 -35 -18 -40 -28 -5 -9 -24 -20 -42 -24
-29 -6 -31 -8 -16 -22 20 -20 83 -12 92 11 3 8 12 15 20 15 8 0 21 8 28 19 7
10 24 22 37 26 13 4 43 27 68 51 24 24 48 44 53 44 6 0 10 5 10 11 0 16 99
109 116 109 8 0 14 6 14 13 0 14 13 32 65 92 62 72 75 88 75 96 0 5 7 9 15 9
9 0 15 9 15 21 0 12 8 23 20 26 11 3 20 14 20 24 0 11 8 23 18 26 9 4 22 12
27 19 6 6 22 14 37 16 20 4 29 0 37 -19 7 -15 19 -23 36 -23 15 0 25 -6 25
-14 0 -15 12 -20 73 -31 21 -3 35 -10 32 -15 -7 -11 27 -30 54 -30 12 0 21 -7
21 -15 0 -15 66 -33 78 -21 11 12 -14 41 -37 44 -13 2 -31 12 -42 23 -10 10
-29 19 -41 19 -13 0 -34 9 -48 20 -14 11 -37 20 -52 20 -17 0 -31 8 -38 19 -5
11 -20 23 -32 27 -13 4 -28 14 -35 23 -15 20 -17 51 -3 51 6 0 16 11 22 25 6
14 17 25 25 25 7 0 13 11 13 25 0 16 6 25 16 25 8 0 20 14 26 30 5 17 19 35
29 41 10 5 19 16 19 24 0 8 9 19 20 25 11 6 20 15 20 21 0 5 18 29 41 52 22
23 43 54 46 70 5 23 10 27 42 27 25 0 40 -6 48 -19 7 -11 27 -22 45 -26 18 -4
39 -12 46 -18 7 -6 29 -13 48 -16 19 -3 35 -10 35 -16 0 -12 38 -34 60 -35 9
0 19 -6 22 -14 3 -8 24 -17 46 -21 24 -4 41 -12 41 -20 0 -16 22 -25 61 -25
18 0 29 5 29 14 0 18 -65 56 -109 64 -21 3 -35 12 -38 23 -3 11 -19 20 -44 24
-22 4 -39 12 -39 20 0 16 -22 25 -65 25 -24 0 -38 6 -45 20 -6 11 -17 20 -25
20 -8 0 -20 8 -27 18 -7 10 -21 21 -30 25 -18 6 -24 43 -10 63 4 6 15 13 25
17 9 3 17 16 17 27 0 11 6 23 14 26 8 3 20 19 27 36 7 17 27 45 44 62 17 17
36 45 43 61 7 17 28 47 47 69 19 21 35 44 35 52 0 7 9 18 19 24 11 5 22 23 26
40 4 16 11 30 16 30 5 0 15 11 21 25 14 32 62 35 80 5 9 -14 24 -20 49 -20 27
0 38 -5 42 -18 2 -12 17 -22 36 -25 38 -8 93 -59 90 -84 -3 -31 13 -83 26 -83
16 0 25 -22 25 -61 0 -19 5 -29 15 -29 8 0 19 -9 25 -19 5 -11 19 -23 30 -26
11 -3 20 -12 20 -20 0 -7 7 -15 15 -19 8 -3 15 -14 15 -25 0 -11 9 -22 20 -26
11 -3 20 -10 20 -15 0 -5 10 -18 22 -29 19 -18 19 -21 5 -27 -10 -3 -17 -13
-17 -21 0 -9 -11 -26 -25 -39 -14 -13 -25 -32 -25 -43 0 -11 -9 -25 -20 -31
-11 -6 -20 -20 -20 -30 0 -11 -6 -20 -14 -20 -7 0 -19 -13 -26 -30 -7 -16 -18
-35 -26 -41 -8 -6 -14 -20 -14 -30 0 -17 -8 -19 -66 -19 -49 0 -70 4 -78 16
-7 8 -31 18 -54 21 -33 4 -42 3 -42 -10 0 -18 21 -27 62 -27 22 0 31 -6 35
-21 4 -12 17 -22 35 -26 27 -5 29 -9 24 -36 -3 -16 -6 -33 -6 -38 0 -5 -7 -9
-14 -9 -8 0 -21 -10 -28 -23 -30 -53 -60 -97 -67 -97 -4 0 -13 -11 -19 -25 -6
-14 -18 -25 -27 -25 -9 0 -15 -9 -15 -21 0 -12 -8 -23 -20 -26 -11 -3 -20 -11
-20 -18 0 -7 -22 -37 -50 -66 -27 -30 -50 -57 -50 -62 0 -4 -11 -1 -23 8 -27
18 -87 10 -87 -11 0 -7 16 -16 35 -20 36 -6 48 -30 20 -40 -8 -4 -15 -13 -15
-20 0 -8 -11 -19 -25 -24 -14 -5 -25 -17 -25 -25 0 -9 -7 -18 -15 -21 -8 -3
-17 -14 -20 -25 -4 -10 -11 -19 -16 -19 -14 0 -69 -56 -69 -69 0 -6 -6 -11
-14 -11 -8 0 -23 -12 -34 -27 -17 -23 -28 -28 -68 -28 -49 -1 -71 -18 -34 -28
28 -7 25 -36 -5 -47 -14 -5 -25 -14 -25 -19 0 -5 -15 -15 -34 -22 -19 -7 -37
-21 -39 -31 -3 -10 -14 -18 -26 -18 -15 0 -21 -6 -21 -21 0 -19 4 -21 33 -15
17 3 37 12 42 20 6 7 20 16 33 20 12 4 22 13 22 21 0 8 9 17 20 20 11 3 20 12
20 19 0 14 68 39 82 30 4 -3 17 -3 27 1 16 5 19 12 14 41 -5 30 -3 36 16 41
11 3 21 12 21 19 0 8 11 19 25 24 14 5 25 16 25 25 0 8 7 15 15 15 9 0 20 11
25 25 5 14 16 25 25 25 8 0 15 6 15 13 0 7 8 20 18 29 9 9 22 21 27 27 36 36
57 50 84 56 31 7 40 19 21 30 -17 11 -11 43 10 50 11 3 20 13 20 20 0 8 9 19
20 25 11 6 20 17 20 25 0 8 7 15 15 15 9 0 19 8 22 18 8 20 50 80 75 105 10
10 18 24 18 32 0 8 7 15 16 15 8 0 20 14 25 30 6 17 15 30 19 30 5 0 14 16 21
35 13 35 14 35 71 35 51 0 58 -2 58 -20 0 -17 7 -20 51 -20 43 0 50 3 45 16
-3 9 -6 18 -6 20 0 2 -18 4 -41 4 -31 0 -48 7 -70 27 -36 34 -37 54 -4 84 13
13 25 29 25 36 0 7 8 17 19 22 10 6 22 26 25 45 4 22 13 36 26 39 12 3 20 14
20 25 0 11 9 22 20 25 12 3 20 14 20 26 0 17 6 21 35 21 29 0 37 -5 45 -25 5
-14 17 -25 26 -25 9 0 18 -9 21 -19 6 -23 41 -31 131 -31 44 0 71 -5 81 -15 9
-8 31 -28 49 -45 19 -17 38 -47 43 -66 6 -19 14 -34 19 -34 6 0 10 -8 10 -19
0 -24 55 -66 98 -75 37 -9 40 -16 12 -34 -11 -7 -20 -21 -20 -32 0 -11 -6 -20
-14 -20 -8 0 -18 -16 -23 -38 -8 -34 -12 -37 -48 -42 -40 -5 -40 -5 -37 -45 3
-33 -2 -45 -22 -64 -14 -14 -26 -33 -26 -43 0 -10 -6 -18 -14 -18 -8 0 -17 -9
-21 -19 -3 -10 -15 -21 -25 -24 -11 -3 -20 -13 -20 -24 0 -10 -12 -29 -25 -42
-14 -13 -25 -29 -25 -36 0 -8 -9 -17 -20 -20 -11 -3 -20 -15 -20 -26 0 -10 -7
-19 -15 -19 -8 0 -17 -11 -21 -25 -3 -14 -13 -25 -23 -25 -9 0 -22 -9 -29 -20
-7 -11 -18 -20 -26 -20 -18 0 -42 -30 -50 -62 -4 -16 -13 -28 -22 -28 -9 0
-18 -9 -21 -20 -3 -11 -14 -20 -24 -20 -12 0 -19 -7 -19 -20 0 -14 -7 -20 -21
-20 -12 0 -23 -8 -26 -20 -3 -11 -12 -20 -20 -20 -8 0 -17 -9 -20 -20 -3 -11
-9 -20 -14 -20 -5 0 -19 -11 -30 -25 -12 -13 -36 -27 -53 -31 -45 -10 -66 -26
-66 -51 0 -17 -6 -23 -23 -23 -13 0 -31 -6 -41 -13 -16 -12 -16 -14 -2 -26 20
-17 49 -10 60 15 8 17 43 36 109 58 9 3 17 15 17 26 0 11 7 20 15 20 8 0 20 9
27 20 7 11 17 20 21 20 5 0 29 20 54 45 24 25 50 45 58 45 7 0 20 11 29 25 9
14 23 25 31 25 8 0 15 6 15 13 0 17 65 67 89 67 26 0 34 15 22 38 -9 17 19 59
88 128 12 12 21 26 21 33 0 6 7 11 15 11 9 0 20 11 25 25 5 14 13 25 18 25 4
0 13 15 20 34 7 19 21 36 32 39 12 3 20 14 20 26 0 12 6 21 15 21 8 0 17 11
21 25 3 14 11 25 18 25 6 0 17 9 24 20 7 11 21 20 31 20 11 0 27 3 36 6 14 6
13 8 -5 21 -27 19 -25 45 5 71 14 12 25 28 25 36 0 8 5 18 11 22 14 9 109 -36
109 -51 0 -7 9 -19 21 -26 13 -9 21 -26 22 -49 l2 -35 -81 3 c-56 3 -84 0 -89
-8 -12 -19 8 -30 66 -36 30 -4 59 -12 64 -19 6 -6 25 -15 43 -18 32 -7 92 -55
92 -75 0 -5 16 -13 35 -16 19 -4 39 -16 45 -26 6 -11 15 -20 20 -20 15 0 60
-46 60 -63 0 -8 -7 -17 -15 -21 -8 -3 -15 -11 -15 -19 0 -7 -11 -23 -25 -35
-13 -11 -36 -39 -51 -61 -14 -23 -31 -38 -36 -35 -5 3 -14 -8 -20 -24 -14 -36
-35 -42 -158 -42 -163 0 -200 -23 -56 -35 92 -8 121 -18 96 -35 -8 -5 -24 -10
-35 -10 -31 0 -48 -16 -61 -52 -8 -26 -17 -34 -40 -36 -16 -2 -44 -10 -61 -20
-28 -14 -33 -22 -33 -54 0 -34 -4 -39 -35 -52 -19 -8 -35 -19 -35 -24 0 -5
-15 -13 -32 -18 -39 -12 -45 -39 -8 -39 16 0 28 8 35 22 7 17 15 21 35 16 14
-3 28 -8 33 -10 13 -7 7 -71 -8 -86 -12 -13 -12 -16 8 -21 53 -14 213 -6 270
14 31 11 72 20 91 20 22 0 38 6 44 17 7 12 30 18 84 22 41 3 85 13 99 22 13 9
49 19 79 22 31 4 60 13 66 22 6 8 26 18 45 21 19 4 42 13 51 21 9 8 35 17 58
20 25 4 46 13 53 24 7 12 23 19 43 19 17 0 43 9 57 20 14 11 36 20 49 20 13 0
39 11 58 25 19 14 41 25 51 25 9 0 22 7 29 15 7 8 29 19 50 25 21 6 41 17 44
25 3 8 13 15 21 15 9 0 31 11 49 25 18 14 40 25 49 25 10 0 17 5 17 11 0 5 17
17 38 26 20 8 39 19 42 24 3 4 33 22 65 40 33 17 64 38 68 45 4 8 14 14 22 14
8 0 20 8 27 18 7 10 28 24 46 31 17 7 32 20 32 27 0 8 6 14 13 14 16 0 77 53
77 66 0 6 16 16 36 23 19 7 38 19 41 27 3 8 10 14 15 14 6 0 23 14 40 32 28
30 29 33 11 46 -22 16 -83 8 -99 -14 -26 -34 -123 -37 -131 -4 -3 10 -18 23
-34 29 -38 13 -37 29 3 45 29 13 30 14 10 20 -12 4 -45 0 -73 -8 -29 -9 -65
-16 -81 -16 -15 0 -44 -8 -63 -19 -24 -12 -53 -18 -92 -17 -53 1 -58 3 -61 25
-6 38 8 91 23 91 20 0 28 17 21 46 -9 34 -24 30 -31 -10 -5 -22 -14 -36 -26
-39 -14 -4 -19 -14 -19 -36 0 -24 -6 -34 -25 -41 -14 -5 -25 -16 -25 -24 0
-19 -57 -28 -99 -16 -25 7 -47 5 -85 -7 -28 -9 -56 -20 -62 -24 -17 -14 -150
-24 -251 -21 l-93 3 0 40 c0 28 4 39 15 39 8 0 17 11 21 24 3 13 14 26 25 29
11 3 19 14 19 26 0 12 9 30 20 41 11 11 20 29 20 39 0 11 9 22 20 26 12 4 22
19 26 41 4 20 12 38 20 41 7 2 15 22 19 43 4 26 13 40 26 43 28 8 28 77 -1 77
-13 0 -20 -7 -21 -20 -3 -38 -4 -42 -21 -54 -10 -7 -18 -24 -18 -38 0 -14 -11
-34 -25 -46 -14 -12 -25 -29 -25 -38 0 -9 -9 -27 -20 -41 -11 -14 -20 -34 -20
-44 0 -11 -7 -19 -15 -19 -8 0 -21 -15 -29 -34 -8 -18 -19 -37 -25 -40 -6 -4
-11 -16 -11 -27 0 -10 -7 -19 -15 -19 -8 0 -22 -16 -30 -36 -12 -30 -19 -35
-37 -31 -13 3 -67 9 -120 12 -61 5 -102 12 -109 21 -10 13 -7 17 74 105 9 10
17 25 17 33 0 8 10 16 23 18 18 2 23 10 25 46 2 32 0 42 -12 42 -8 0 -21 8
-28 18 -11 16 -32 20 -127 25 -63 4 -118 10 -122 14 -4 5 -11 20 -14 35 -6 23
-3 28 19 34 14 3 26 12 26 20 0 7 8 19 18 26 10 7 24 27 31 44 9 23 21 34 43
38 18 4 32 14 35 26 3 11 11 20 19 20 7 0 18 9 25 21 10 19 18 21 87 17 46 -2
77 -8 79 -15 6 -17 50 -23 181 -26 67 -1 116 -6 120 -13 4 -6 15 -13 25 -17 9
-3 17 -15 17 -25 0 -10 3 -21 6 -25 10 -9 34 4 34 19 0 24 30 30 98 22 37 -4
155 -7 262 -5 179 2 195 1 198 -15 3 -15 -5 -18 -50 -19 -119 -3 -111 -1 -119
-38 -11 -54 -3 -64 45 -55 48 9 63 8 93 -1 18 -6 25 -2 34 19 7 14 18 26 26
26 14 0 16 8 13 56 -1 24 6 37 29 57 33 27 38 46 19 65 -20 20 -35 14 -47 -18
-12 -35 4 -33 -216 -30 -166 1 -171 2 -193 26 -13 13 -29 24 -37 24 -8 0 -15
5 -15 10 0 6 -11 16 -25 22 -20 9 -25 18 -25 50 0 31 -4 38 -20 38 -10 0 -24
-9 -30 -21 -11 -19 -13 -19 -29 -5 -17 16 -84 22 -114 10 -22 -8 31 -60 71
-68 17 -4 34 -12 37 -17 10 -15 -14 -48 -45 -64 -37 -19 -40 -19 -40 4 0 24
-22 30 -155 38 -66 3 -118 11 -130 19 -11 8 -32 14 -46 14 -37 0 -59 9 -59 25
0 9 -18 16 -47 20 -27 3 -55 7 -63 8 -23 4 -15 97 10 117 10 8 21 29 25 47 3
17 13 34 21 37 8 3 14 18 14 34 0 18 9 36 25 50 17 15 25 32 25 56 0 25 5 35
20 39 15 4 20 14 20 42 0 28 5 38 20 42 14 4 20 14 20 33 0 15 9 38 19 52 11
13 21 37 23 53 l3 30 75 0 c60 0 86 -5 127 -25 29 -14 53 -31 53 -37 0 -7 3
-13 8 -14 4 0 29 -2 55 -4 26 -1 51 -6 55 -10 4 -3 6 -37 6 -73 -4 -244 1
-295 29 -300 10 -2 17 3 17 12 0 9 8 16 20 16 13 0 20 -7 20 -20 0 -11 -6 -20
-14 -20 -24 0 -37 -102 -15 -116 17 -10 29 16 29 67 0 42 3 48 25 53 21 5 25
12 25 47 0 25 5 42 14 45 16 6 32 77 21 93 -4 7 -14 7 -31 1 -39 -15 -45 -4
-22 46 11 27 18 57 15 73 -3 14 -3 38 0 54 5 24 10 27 44 27 37 0 39 -2 39
-30 0 -19 -7 -34 -20 -42 -16 -10 -20 -24 -20 -65 0 -47 12 -74 27 -59 4 3 8
31 11 61 3 37 9 55 18 55 7 0 20 16 29 35 15 29 19 32 35 23 14 -9 25 -9 45 0
32 15 82 16 90 2 4 -6 64 -10 147 -10 117 0 145 3 159 16 17 16 19 15 29 -10
5 -15 10 -45 10 -67 0 -33 3 -40 18 -37 13 2 18 15 20 51 2 31 8 47 16 47 8 0
16 6 19 14 4 9 34 15 107 18 81 4 104 8 112 22 7 12 24 16 78 16 82 0 100 6
100 32 0 20 -4 21 -82 15 -64 -4 -85 -9 -95 -24 -12 -15 -28 -18 -111 -18
l-97 0 -3 43 c-3 33 -7 42 -22 42 -15 0 -20 -10 -25 -44 l-7 -43 -56 -6 c-61
-6 -419 1 -439 8 -17 6 -5 126 14 140 7 6 17 24 21 40 7 26 14 30 45 33 24 2
41 10 47 22 6 11 25 22 43 25 27 5 36 14 46 41 7 19 17 34 22 34 5 0 9 5 9 12
0 6 9 22 21 34 17 18 19 26 10 43 -9 15 -8 33 0 68 14 55 22 63 67 63 27 0 32
4 32 24 0 34 10 56 24 56 7 0 18 11 24 24 6 15 23 27 41 31 17 4 33 11 36 16
4 5 35 9 71 9 l64 0 0 -74 c0 -41 3 -81 6 -90 13 -34 24 -1 24 74 0 43 4 82
10 85 5 3 62 10 127 14 74 6 129 15 148 25 20 10 55 16 102 16 62 0 74 3 83
20 8 15 21 20 50 20 27 0 45 7 59 21 12 13 35 22 61 25 23 2 57 13 75 24 18
11 42 20 53 20 19 0 34 11 97 70 14 13 30 18 53 15 20 -3 32 0 32 8 1 20 54
75 75 77 46 5 46 5 44 -97 -2 -78 -6 -102 -21 -117 -23 -25 -23 -41 2 -66 20
-20 27 -36 11 -26 -14 9 -34 -81 -29 -132 6 -62 -4 -118 -21 -114 -7 1 -15 -6
-18 -17 -3 -10 -13 -21 -24 -24 -11 -3 -19 -14 -19 -26 0 -41 40 -23 113 49
38 38 74 70 79 70 4 0 8 23 8 52 0 50 0 51 -19 34 -11 -10 -23 -31 -26 -47 -4
-16 -10 -29 -14 -29 -12 0 -7 116 6 132 13 16 11 1 22 258 5 118 10 216 10
218 1 2 15 1 31 -3 27 -6 30 -4 30 17 0 32 15 52 34 45 13 -5 16 -23 17 -94 2
-215 -5 -293 -27 -293 -21 0 -19 -96 1 -104 11 -4 22 9 40 49 14 29 25 65 25
78 0 54 13 117 25 117 8 0 14 38 18 131 4 101 9 133 21 142 12 10 17 42 21
152 3 77 10 165 16 195 19 96 22 153 11 220 -6 36 -15 122 -20 192 -6 79 -14
134 -23 144 -15 18 -14 66 2 135 9 40 8 51 -11 87 -12 22 -28 43 -36 46 -10 4
-14 23 -14 74 0 53 -4 74 -19 91 -11 12 -22 45 -26 76 -3 30 -11 55 -16 55 -8
0 -14 -12 -35 -69 -4 -11 -8 -11 -22 3 -10 9 -24 16 -30 16 -7 0 -20 17 -30
37 -9 20 -34 52 -54 71 -21 19 -38 41 -38 49 0 7 -7 25 -16 38 -12 18 -16 46
-15 101 1 70 -1 79 -24 100 -15 13 -31 24 -37 24 -5 0 -23 14 -39 31 -20 22
-29 41 -29 66 0 19 -9 53 -19 76 -10 23 -21 51 -23 62 -5 31 -38 32 -38 2 0
-35 -22 -39 -58 -10 -26 20 -32 32 -32 63 0 33 -5 42 -27 55 -64 34 -115 97
-107 131 3 12 -2 43 -10 68 -18 54 -21 117 -5 133 5 5 21 8 34 6 17 -4 25 -14
30 -39 3 -19 12 -34 19 -34 7 0 18 -11 24 -25 6 -14 18 -25 26 -25 7 0 16 -9
19 -20 3 -11 12 -20 21 -20 19 0 22 -40 4 -58 -9 -9 -5 -12 19 -12 20 0 36 -7
47 -22 15 -22 16 -22 29 -5 8 9 19 17 25 17 15 0 72 -59 72 -75 0 -8 9 -16 20
-20 17 -5 19 -15 18 -93 -1 -49 2 -93 6 -100 15 -24 34 -12 41 27 6 37 9 40
43 43 35 3 37 5 35 38 -1 19 -8 39 -17 46 -9 6 -19 26 -22 45 -4 19 -15 42
-25 52 -11 10 -19 27 -19 37 0 11 -9 28 -20 37 -11 10 -23 33 -26 51 -4 22
-14 36 -25 39 -11 3 -19 14 -19 24 0 10 -11 30 -25 45 -14 15 -25 35 -25 45 0
11 -9 24 -20 31 -11 7 -20 22 -20 34 0 13 -8 24 -20 27 -16 4 -20 14 -20 46 0
34 -3 41 -20 41 -13 0 -20 7 -20 20 0 11 -6 23 -14 26 -8 3 -20 19 -26 35 -7
16 -19 29 -26 29 -8 0 -16 11 -20 24 -3 13 -14 26 -25 29 -11 3 -19 14 -19 25
0 12 -9 23 -19 27 -11 3 -22 19 -26 35 -9 41 -22 46 -21 8 1 -43 -28 -61 -53
-32 -9 12 -27 26 -39 33 -12 6 -21 15 -19 19 1 4 -13 22 -30 39 -18 18 -33 38
-33 46 0 7 -12 24 -27 38 -24 20 -38 24 -101 24 -59 0 -75 3 -83 18 -11 19
-53 24 -47 5z m338 -250 c0 -15 9 -18 53 -18 59 0 115 -23 124 -49 2 -9 11
-28 19 -43 11 -20 12 -33 4 -47 -8 -16 -6 -21 13 -26 40 -11 67 -28 67 -42 0
-7 5 -13 10 -13 6 0 10 -8 10 -19 0 -33 22 -81 37 -81 11 0 13 -7 8 -29 -5
-24 -2 -32 15 -41 17 -9 20 -19 18 -48 -3 -43 -35 -59 -45 -23 -3 12 -11 21
-18 21 -8 0 -19 16 -25 35 -6 19 -16 35 -21 35 -5 0 -14 11 -19 25 -5 14 -17
28 -25 31 -8 4 -15 12 -15 18 0 17 -63 86 -78 86 -6 0 -12 6 -12 14 0 7 -9 16
-20 19 -12 3 -20 14 -20 26 0 11 -18 36 -39 56 -22 20 -42 47 -45 60 -3 12
-15 25 -26 28 -25 6 -27 42 -3 56 20 11 33 -2 33 -31z m-260 -534 c0 -8 9 -14
19 -14 11 0 21 -9 25 -23 7 -31 -12 -99 -27 -94 -16 5 -20 67 -5 84 15 19 -8
36 -32 23 -9 -5 -22 -5 -31 1 -11 7 -10 9 6 10 17 1 17 2 3 6 -32 8 -21 30 12
25 17 -2 30 -10 30 -18z m-80 -4 c0 -5 -4 -10 -10 -10 -5 0 -10 5 -10 10 0 6
5 10 10 10 6 0 10 -4 10 -10z m15 -68 c-11 -9 -19 -25 -17 -34 4 -22 -26 -24
-34 -3 -7 17 32 54 56 54 11 0 10 -4 -5 -17z m265 8 c0 -5 -5 -10 -11 -10 -5
0 -7 5 -4 10 3 6 8 10 11 10 2 0 4 -4 4 -10z m-420 -305 c0 -19 -20 -29 -32
-17 -8 8 -7 16 2 26 14 17 30 12 30 -9z m818 -53 c3 -36 0 -42 -16 -42 -22 0
-37 39 -27 71 12 37 40 18 43 -29z m-1318 -262 c0 -5 -2 -10 -4 -10 -3 0 -8 5
-11 10 -3 6 -1 10 4 10 6 0 11 -4 11 -10z m-140 -29 c0 -10 -7 -22 -16 -25 -8
-3 -13 -2 -11 2 2 4 7 15 10 25 8 23 17 22 17 -2z m230 -66 c14 -17 7 -88 -10
-93 -7 -3 -7 -8 -1 -15 5 -7 12 -42 16 -79 l7 -68 -26 0 c-16 0 -26 -5 -26
-15 0 -8 9 -15 20 -15 25 0 38 -29 19 -41 -24 -15 -47 -10 -54 11 -3 11 -12
20 -20 20 -7 0 -15 -9 -18 -20 -7 -25 -47 -27 -54 -2 -3 13 -14 18 -40 17 -46
0 -54 -20 -12 -29 30 -6 31 -8 25 -41 -6 -30 -4 -35 12 -35 12 0 22 9 25 21 4
15 11 20 22 15 9 -3 27 -6 40 -6 21 0 25 -6 31 -49 5 -42 10 -50 31 -56 17 -4
32 0 44 10 21 20 39 12 39 -16 0 -12 -7 -19 -20 -19 -12 0 -17 -5 -14 -13 2
-7 -4 -21 -15 -31 -26 -23 -18 -36 20 -36 19 0 29 5 29 15 0 8 -5 15 -12 15
-6 0 -1 10 11 22 30 27 56 14 56 -28 0 -21 -5 -30 -20 -32 -35 -7 -38 -19 -12
-54 l26 -34 -3 -202 c-2 -134 -6 -206 -14 -214 -8 -8 -13 -7 -18 8 -4 10 -15
38 -26 62 -14 32 -18 62 -17 122 2 44 0 82 -3 85 -3 3 -31 7 -62 9 -31 1 -57
4 -59 7 -1 2 -10 21 -20 42 -9 20 -23 37 -32 37 -20 0 -44 60 -38 94 4 19 -1
33 -16 47 -11 11 -21 15 -21 9 0 -16 -47 -12 -54 5 -8 23 -43 18 -49 -6 -3
-12 -11 -19 -19 -17 -17 6 -26 42 -27 111 -1 45 -4 57 -17 57 -8 0 -22 6 -30
14 -12 13 -11 17 10 34 l25 19 -21 21 c-20 20 -20 22 -4 46 17 26 36 35 36 16
0 -5 21 -10 46 -10 52 0 57 20 7 31 -42 8 -55 19 -48 38 4 9 8 23 9 31 2 8 17
19 34 25 18 5 32 15 32 21 0 19 20 28 56 26 27 -2 33 1 36 20 2 14 9 23 20 22
9 -1 29 16 45 37 15 21 37 40 48 42 42 9 63 6 75 -8z m68 -7 c-4 -29 -38 -38
-38 -10 0 22 8 32 27 32 9 0 13 -8 11 -22z m300 -161 c6 -7 10 -26 8 -42 -3
-27 -7 -30 -41 -33 -60 -5 -99 51 -54 79 21 13 75 11 87 -4z m-848 -91 c0 -2
-3 -12 -6 -20 -5 -13 -9 -14 -20 -5 -20 16 -17 29 6 29 11 0 20 -2 20 -4z
m-263 -51 c22 -23 9 -44 -26 -43 -23 1 -31 6 -31 20 0 10 7 18 15 18 8 0 15 5
15 10 0 14 9 12 27 -5z m1449 4 c10 -17 -13 -36 -27 -22 -12 12 -4 33 11 33 5
0 12 -5 16 -11z m-1228 -46 c-2 -10 -13 -19 -26 -21 -17 -3 -22 2 -22 17 0 16
6 21 26 21 19 0 25 -5 22 -17z m32 -54 c0 -11 -4 -17 -10 -14 -5 3 -10 13 -10
21 0 8 5 14 10 14 6 0 10 -9 10 -21z m-765 -109 c-3 -5 1 -10 9 -10 21 0 20
-6 -5 -31 -19 -19 -22 -20 -46 -4 -13 9 -22 19 -19 22 3 3 12 0 21 -7 9 -8 15
-8 15 -2 0 6 -5 14 -12 18 -8 5 -6 10 8 15 27 11 36 10 29 -1z m1405 -10 c0
-5 -2 -10 -4 -10 -3 0 -8 5 -11 10 -3 6 -1 10 4 10 6 0 11 -4 11 -10z m-1409
-160 c21 0 22 -1 4 -20 -17 -19 -19 -19 -31 -3 -10 15 -12 14 -8 -12 l5 -30
-15 25 c-13 23 -15 24 -22 6 -5 -13 -1 -23 11 -32 10 -8 16 -16 14 -19 -3 -3
-14 3 -25 13 -10 10 -36 28 -56 41 -21 12 -38 25 -38 27 0 3 12 20 27 39 l27
34 42 -35 c23 -18 52 -34 65 -34z m429 35 c0 -16 -6 -25 -15 -25 -15 0 -21 31
-8 43 13 14 23 6 23 -18z m1764 6 c8 -12 -21 -34 -34 -26 -17 11 -11 35 9 35
11 0 22 -4 25 -9z m-2104 -11 c0 -5 -7 -10 -16 -10 -8 0 -12 5 -9 10 3 6 10
10 16 10 5 0 9 -4 9 -10z m1413 -66 c8 -72 2 -150 -12 -159 -5 -2 -23 8 -41
24 -30 26 -32 31 -25 70 5 29 17 51 36 68 32 29 37 43 14 43 -16 0 -20 12 -8
24 17 17 29 -6 36 -70z m-902 5 c16 -8 19 -16 13 -47 -4 -20 -11 -43 -17 -50
-7 -9 -5 -18 7 -31 13 -14 16 -28 11 -55 -4 -20 -11 -39 -16 -42 -13 -7 -49
15 -49 30 0 8 -6 16 -14 19 -17 7 -19 168 -2 179 16 11 44 10 67 -3z m1963
-44 c-4 -8 -8 -15 -10 -15 -2 0 -4 7 -4 15 0 8 4 15 10 15 5 0 7 -7 4 -15z
m-2134 -62 c0 -7 -4 -13 -10 -13 -5 0 -10 12 -10 28 0 21 2 24 10 12 5 -8 10
-21 10 -27z m1794 -11 c-22 -5 -31 7 -14 18 9 6 17 5 22 -3 4 -7 1 -13 -8 -15z
m310 22 c9 -3 16 -12 16 -19 0 -7 7 -18 15 -25 8 -7 12 -16 9 -21 -3 -5 4 -9
14 -9 24 0 37 -35 13 -36 -9 -1 -37 -4 -63 -8 l-47 -8 -6 33 c-7 37 -4 67 8
87 9 13 18 15 41 6z m-149 -53 c3 -5 1 -12 -5 -16 -5 -3 -10 1 -10 9 0 18 6
21 15 7z m-2675 -29 c0 -4 -9 -13 -21 -20 -19 -12 -19 -11 -9 8 10 19 30 28
30 12z m2600 -147 c0 -8 -4 -17 -10 -20 -6 -4 -10 5 -10 20 0 15 4 24 10 20 6
-3 10 -12 10 -20z m65 -45 c3 -5 0 -7 -8 -4 -9 3 -16 -3 -20 -15 -11 -44 -68
-40 -60 3 5 23 10 26 44 26 21 0 41 -4 44 -10z m271 -35 c-3 -9 -11 -13 -16
-10 -8 5 -7 11 1 21 14 18 24 11 15 -11z m-86 -50 c0 -9 -7 -18 -15 -21 -18
-7 -20 -24 -2 -24 22 0 34 -20 29 -45 -3 -19 -10 -24 -28 -23 -27 3 -36 20
-28 54 3 13 1 31 -6 39 -16 19 -7 30 24 33 18 1 26 -3 26 -13z m-122 -103 c2
-24 11 -58 21 -75 14 -27 15 -36 5 -56 -10 -20 -10 -31 1 -56 7 -18 12 -55 12
-84 0 -28 5 -57 11 -63 7 -7 12 -22 12 -35 0 -13 5 -23 11 -23 8 0 7 -6 -2
-17 -12 -14 -12 -16 1 -11 9 3 16 20 18 44 2 21 8 42 14 45 7 4 7 21 1 51 -6
27 -6 54 -1 69 5 13 7 44 3 69 -3 25 -7 60 -8 78 l-3 33 48 -6 c40 -6 47 -4
42 8 -6 18 43 32 76 22 32 -10 25 -35 -10 -35 -29 0 -30 -2 -30 -42 0 -24 5
-50 10 -58 8 -13 10 -12 10 3 0 10 4 16 9 13 10 -7 21 17 21 45 0 10 5 19 10
19 11 0 14 -118 4 -144 -3 -9 -12 -16 -20 -16 -8 0 -14 -7 -14 -15 0 -8 4 -15
10 -15 13 0 40 -54 40 -80 0 -11 5 -20 12 -20 6 0 4 -7 -5 -18 -10 -10 -17
-24 -17 -30 0 -7 -7 -12 -15 -12 -8 0 -17 -11 -21 -24 -4 -18 -15 -26 -40 -30
-19 -4 -34 -11 -34 -15 0 -11 -64 -81 -74 -81 -14 0 -66 -44 -66 -56 0 -7 -17
-16 -37 -19 -42 -7 -158 -59 -168 -75 -3 -5 -26 -10 -51 -10 l-44 0 4 188 c3
103 8 215 12 250 l7 62 48 0 c38 0 52 4 61 20 15 24 34 26 42 5 7 -20 52 -19
60 1 3 9 4 19 2 23 -3 4 -7 31 -9 61 -6 62 -20 104 -38 116 -7 4 -27 7 -46 6
-53 -2 -38 14 25 25 84 15 87 14 90 -35z m-3431 16 c-3 -8 -6 -5 -6 6 -1 11 2
17 5 13 3 -3 4 -12 1 -19z m190 0 c-3 -8 -6 -5 -6 6 -1 11 2 17 5 13 3 -3 4
-12 1 -19z m2941 -81 c2 -10 -3 -17 -12 -17 -25 0 -29 -21 -7 -41 26 -25 31
-126 6 -135 -8 -3 -20 -24 -25 -45 -12 -44 -19 -47 -44 -20 -10 11 -24 17 -31
15 -36 -14 -61 69 -30 100 8 8 15 29 15 46 0 26 3 30 18 26 13 -5 23 2 33 21
34 63 70 87 77 50z m691 9 c9 -11 9 -19 -1 -35 -19 -30 -28 -26 -28 14 0 37
10 44 29 21z m-1840 -17 c33 -17 41 -27 46 -60 4 -23 12 -39 20 -39 15 0 29
-53 23 -91 -4 -28 -48 -41 -48 -15 0 11 -9 16 -30 16 -33 0 -80 19 -80 32 0 5
-11 13 -25 18 -22 8 -25 15 -25 62 0 39 5 57 22 75 27 28 46 29 97 2z m981 1
c6 -11 17 -20 24 -20 20 0 26 -23 10 -38 -12 -10 -14 -10 -14 3 0 8 -4 15 -10
15 -5 0 -10 7 -10 15 0 12 -5 13 -27 4 -30 -11 -49 1 -40 25 9 23 54 20 67 -4z
m-1155 -76 c0 -26 -4 -38 -13 -36 -7 1 -20 4 -30 5 -9 2 -28 9 -42 16 l-24 14
44 22 c25 13 50 22 55 21 6 -2 10 -20 10 -42z m2051 -9 c-4 -33 -11 -39 -26
-20 -10 12 -10 18 0 30 18 22 29 18 26 -10z m166 10 c0 -5 -5 -11 -11 -13 -6
-2 -11 4 -11 13 0 9 5 15 11 13 6 -2 11 -8 11 -13z m-6049 -51 c16 -14 27 -28
25 -30 -2 -2 -21 -1 -41 3 -26 4 -37 11 -37 23 0 37 16 38 53 4z m1915 -14
c11 -18 10 -25 -6 -45 l-20 -25 -6 31 c-3 18 -6 38 -6 45 0 21 23 17 38 -6z
m-1841 -38 c77 -48 173 -126 173 -140 0 -19 -29 -52 -46 -52 -7 0 -18 -15 -24
-34 -16 -50 -77 -126 -100 -126 -15 0 -20 -7 -20 -28 0 -19 -11 -39 -32 -60
-18 -17 -41 -42 -51 -56 -9 -14 -23 -23 -31 -20 -9 4 -15 -7 -20 -35 -4 -26
-13 -44 -26 -51 -11 -6 -20 -7 -20 -3 -1 4 -11 -14 -24 -41 -14 -30 -26 -45
-30 -38 -12 20 -24 13 -31 -18 -7 -31 -26 -51 -32 -33 -9 27 -32 46 -56 46
-36 0 -44 15 -17 34 12 8 19 21 16 28 -2 7 9 27 25 44 16 18 27 36 24 40 -2 5
2 17 10 27 12 17 13 15 10 -21 -2 -23 1 -43 8 -47 9 -5 9 -10 0 -19 -8 -8 -9
-18 -2 -31 14 -27 33 -22 61 15 26 34 39 76 41 142 2 37 4 40 35 43 21 2 32 9
32 19 0 13 -9 15 -49 11 -39 -4 -55 -11 -75 -34 -22 -26 -23 -30 -9 -41 13
-10 14 -15 3 -28 -17 -20 -30 -19 -30 3 0 23 -40 27 -41 4 0 -11 -3 -12 -6 -4
-2 6 -9 12 -14 12 -6 0 -7 -4 -4 -10 8 -13 -24 -60 -41 -60 -9 0 -14 -11 -14
-27 0 -33 -9 -47 -32 -56 -10 -3 -18 -15 -18 -26 0 -11 -9 -23 -20 -26 -26 -8
-140 62 -140 86 0 10 16 31 35 48 19 17 35 37 35 45 0 8 24 46 53 85 28 39 81
112 117 162 36 50 97 132 135 182 70 92 70 92 119 95 32 2 52 -1 58 -10 7 -10
11 -9 21 5 14 21 11 21 44 -1z m5888 -42 c-5 -8 -11 -8 -17 -2 -6 6 -7 16 -3
22 5 8 11 8 17 2 6 -6 7 -16 3 -22z m-1901 -55 c9 -9 17 -11 21 -5 11 18 110
12 136 -8 13 -10 32 -21 42 -25 9 -3 17 -15 17 -26 0 -11 3 -26 6 -35 4 -12 0
-16 -16 -16 -28 0 -81 -56 -90 -95 -3 -16 -11 -30 -18 -30 -7 0 -11 2 -10 5 1
3 -4 15 -11 27 -9 18 -17 21 -41 16 -33 -6 -42 11 -10 20 16 4 20 14 20 45 0
23 5 44 10 47 33 20 -22 58 -71 48 -19 -4 -45 -24 -73 -57 -41 -48 -44 -56
-48 -120 -2 -42 -9 -71 -16 -74 -7 -2 -19 -10 -26 -18 -8 -8 -19 -14 -25 -14
-30 0 -23 127 10 168 10 14 19 33 19 44 0 37 39 106 62 111 51 10 97 6 112 -8z
m1106 -215 c3 -80 1 -157 -4 -171 -11 -31 -41 -39 -146 -39 -38 0 -77 -6 -93
-15 -21 -11 -60 -14 -140 -14 -62 1 -116 3 -121 6 -17 11 55 33 74 23 28 -15
34 3 36 108 2 92 12 122 40 122 8 0 14 5 14 10 0 6 6 10 13 10 8 0 19 11 25
25 6 14 18 25 26 25 8 0 21 9 29 20 8 12 27 22 43 23 23 2 29 -2 29 -18 0 -13
-8 -21 -22 -23 -15 -2 -23 -10 -23 -24 0 -11 -10 -33 -21 -50 -17 -23 -19 -32
-10 -41 9 -9 16 -7 29 9 9 12 25 24 35 27 9 4 17 13 17 22 0 8 7 15 15 15 9 0
18 7 22 16 3 8 16 20 29 25 13 4 24 15 24 22 0 16 38 37 60 34 12 -2 16 -28
20 -147z m-3330 50 c0 -51 -8 -64 -34 -54 -19 7 -22 84 -5 101 23 23 39 2 39
-47z m2598 -67 c-2 -12 -14 -19 -38 -21 -19 -2 -39 -7 -44 -12 -6 -6 -15 -2
-22 8 -26 34 -17 42 47 42 52 0 60 -2 57 -17z m305 -110 c-4 -33 -10 -43 -24
-43 -16 0 -19 8 -19 44 0 24 3 52 6 61 6 15 8 15 25 -2 14 -14 17 -27 12 -60z
m-2902 30 c4 -55 -15 -76 -59 -67 -38 8 -41 28 -10 61 26 28 67 31 69 6z
m2387 -11 c2 -13 -1 -29 -8 -36 -13 -17 -138 -32 -151 -19 -17 17 2 42 34 49
18 3 41 13 52 21 30 21 69 13 73 -15z m-2458 -102 c12 -7 12 -12 -3 -28 -24
-26 -57 -18 -57 14 0 18 5 24 23 24 12 0 29 -4 37 -10z m98 -72 c3 -26 2 -27
-27 -17 -34 12 -37 19 -19 37 20 20 43 9 46 -20z m-55 -78 c17 -16 28 -32 25
-35 -8 -8 -76 36 -82 53 -10 23 25 12 57 -18z m-157 -156 c-3 -9 -6 -18 -6
-20 0 -2 -7 -4 -15 -4 -13 0 -13 3 -3 20 15 24 33 27 24 4z m-127 -179 c-23
-33 -39 -44 -39 -27 0 10 31 55 44 64 21 14 18 -2 -5 -37z m54 -50 c-26 -33
-53 -50 -36 -22 29 46 39 57 51 57 8 0 2 -14 -15 -35z m335 -17 c7 -7 12 -29
12 -50 0 -22 8 -51 19 -66 13 -19 21 -51 24 -106 4 -49 11 -82 19 -88 11 -6
11 -10 -1 -17 -7 -5 -14 -28 -15 -52 l-1 -44 -38 1 c-27 1 -43 8 -53 23 -9 13
-26 21 -43 21 -16 0 -31 7 -35 15 -3 8 -14 15 -25 15 -11 0 -32 10 -48 23 -15
13 -36 26 -45 30 -22 8 -24 37 -3 37 8 0 15 7 15 16 0 9 11 29 25 46 14 16 25
36 25 43 0 8 8 19 19 24 10 6 22 23 26 38 3 16 15 36 26 46 10 10 19 27 19 37
0 16 7 20 33 20 18 0 38 -5 45 -12z m1182 -143 c19 -14 46 -25 62 -25 17 0 31
-7 38 -20 6 -11 17 -20 26 -20 8 0 19 -11 24 -25 6 -15 17 -25 29 -25 23 0 36
-16 21 -25 -5 -3 -10 -21 -10 -40 0 -22 -7 -39 -18 -47 -11 -7 -22 -30 -26
-50 -4 -22 -15 -42 -26 -48 -13 -7 -20 -21 -20 -40 0 -16 -4 -32 -10 -35 -5
-3 -18 -26 -29 -50 -11 -25 -24 -45 -29 -45 -5 0 -12 -14 -16 -32 -3 -17 -13
-39 -21 -48 -8 -9 -16 -31 -17 -49 -2 -24 -9 -36 -25 -42 -13 -5 -23 -15 -23
-24 0 -20 -29 -19 -52 2 -12 10 -42 18 -86 20 -41 3 -74 10 -84 20 -10 8 -39
19 -65 24 -26 5 -49 13 -53 18 -8 14 -57 31 -90 31 -17 0 -40 10 -54 24 -22
20 -26 32 -26 79 0 46 4 58 20 67 10 6 22 26 26 44 4 22 13 36 25 39 10 3 19
13 19 24 1 25 31 60 55 65 12 2 23 16 29 38 5 19 13 37 16 40 4 3 13 22 20 42
10 26 23 40 42 47 16 6 36 17 44 26 11 10 35 15 83 15 58 0 70 3 87 23 28 32
73 33 114 2z m910 -55 c0 -14 -4 -30 -8 -37 -10 -16 -54 -25 -71 -14 -18 12
-5 71 17 77 10 3 24 9 32 13 18 10 30 -5 30 -39z m-3033 -474 c-7 -18 -25 -20
-47 -6 -12 7 -11 12 5 30 16 18 20 19 33 6 8 -8 12 -22 9 -30z m-57 -66 c0
-14 -15 -19 -29 -10 -17 10 -5 31 14 23 8 -3 15 -9 15 -13z m1644 -22 c6 -4
30 -8 53 -8 28 0 48 -6 60 -19 10 -10 38 -21 61 -25 24 -4 51 -13 59 -21 8 -8
32 -15 53 -15 21 0 51 -4 65 -10 22 -8 26 -15 23 -42 -2 -27 -8 -33 -35 -40
-19 -5 -33 -15 -33 -23 0 -17 -78 -21 -108 -6 -33 16 -89 31 -120 31 -17 0
-35 6 -39 13 -4 6 -21 19 -37 27 -36 19 -49 53 -42 113 6 56 19 82 24 52 3
-11 9 -23 16 -27z m1236 -198 c0 -13 -7 -20 -20 -20 -13 0 -20 7 -20 20 0 13
7 20 20 20 13 0 20 -7 20 -20z m-502 -616 c25 -7 30 -39 7 -48 -8 -3 -15 -12
-15 -19 0 -17 -56 -28 -105 -20 -36 6 -79 46 -72 67 3 9 48 17 142 24 11 1 30
-1 43 -4z m119 -30 c11 -11 26 -14 46 -10 17 4 52 3 79 0 37 -5 48 -11 48 -24
0 -13 -11 -19 -40 -24 -25 -4 -43 -14 -51 -27 -8 -16 -16 -19 -37 -14 -14 3
-32 15 -40 26 -7 10 -22 19 -33 19 -17 0 -19 -7 -19 -80 0 -69 -3 -81 -20 -90
-11 -6 -20 -20 -20 -30 0 -13 -7 -20 -20 -20 -11 0 -20 -7 -20 -15 0 -9 -11
-20 -24 -24 -13 -5 -26 -16 -29 -24 -3 -9 -25 -16 -58 -19 -32 -3 -57 -12 -64
-22 -7 -9 -17 -16 -24 -16 -16 0 -13 37 4 44 8 3 15 12 15 19 0 8 11 19 25 25
14 6 25 18 25 27 0 8 6 15 13 15 7 0 19 16 26 35 7 19 19 35 26 35 8 0 17 11
21 25 3 14 12 25 19 25 8 0 17 9 20 20 3 11 15 25 26 30 10 6 19 17 19 25 0 8
9 15 20 15 11 0 20 4 20 9 0 16 19 61 25 61 4 0 14 -7 22 -16z m463 -14 c0
-23 -4 -30 -20 -30 -22 0 -23 3 -14 38 9 33 34 28 34 -8z"/>
<path d="M6840 5344 c0 -14 4 -23 10 -19 6 3 10 15 10 26 0 10 -4 19 -10 19
-5 0 -10 -12 -10 -26z"/>
<path d="M6800 5310 c0 -5 5 -10 11 -10 5 0 7 5 4 10 -3 6 -8 10 -11 10 -2 0
-4 -4 -4 -10z"/>
<path d="M6930 5311 c0 -5 9 -11 19 -14 26 -6 72 3 65 14 -7 12 -84 12 -84 0z"/>
<path d="M6910 5238 c0 -25 15 -36 43 -31 33 6 36 28 5 37 -35 9 -48 7 -48 -6z"/>
<path d="M6960 5140 c0 -5 4 -10 9 -10 6 0 13 5 16 10 3 6 -1 10 -9 10 -9 0
-16 -4 -16 -10z"/>
<path d="M7050 5100 c0 -11 5 -20 10 -20 6 0 10 9 10 20 0 11 -4 20 -10 20 -5
0 -10 -9 -10 -20z"/>
<path d="M5660 5120 c-9 -6 -10 -10 -3 -10 6 0 15 5 18 10 8 12 4 12 -15 0z"/>
<path d="M5680 5089 c0 -5 5 -7 10 -4 6 3 10 8 10 11 0 2 -4 4 -10 4 -5 0 -10
-5 -10 -11z"/>
<path d="M8366 4384 c-3 -9 -4 -20 -1 -24 9 -15 35 1 35 21 0 23 -25 25 -34 3z"/>
<path d="M2870 4160 c0 -5 5 -10 10 -10 6 0 10 5 10 10 0 6 -4 10 -10 10 -5 0
-10 -4 -10 -10z"/>
<path d="M2310 3695 c0 -8 7 -15 15 -15 8 0 15 7 15 15 0 8 -7 15 -15 15 -8 0
-15 -7 -15 -15z"/>
<path d="M2360 3650 c0 -5 7 -10 16 -10 8 0 12 5 9 10 -3 6 -10 10 -16 10 -5
0 -9 -4 -9 -10z"/>
<path d="M4058 7310 c-3 -17 0 -31 8 -34 17 -7 24 3 24 36 0 38 -26 37 -32 -2z"/>
<path d="M2012 7318 c6 -18 28 -21 28 -4 0 9 -7 16 -16 16 -9 0 -14 -5 -12
-12z"/>
<path d="M2484 7314 c3 -9 6 -18 6 -20 0 -2 5 -4 10 -4 6 0 10 9 10 20 0 12
-7 20 -16 20 -11 0 -14 -5 -10 -16z"/>
<path d="M3467 7323 c-4 -3 -7 -21 -7 -40 0 -40 26 -46 36 -8 10 39 -8 69 -29
48z"/>
<path d="M7520 7309 c0 -11 5 -17 10 -14 6 3 10 13 10 21 0 8 -4 14 -10 14 -5
0 -10 -9 -10 -21z"/>
<path d="M2165 7291 c-12 -5 -27 -16 -34 -25 -7 -9 -26 -16 -42 -16 -23 0 -30
-6 -40 -35 -10 -25 -22 -39 -46 -47 -18 -7 -33 -18 -33 -25 0 -8 -11 -18 -25
-23 -14 -5 -25 -14 -25 -20 0 -6 -8 -14 -17 -17 -10 -4 -30 -19 -46 -34 -23
-24 -28 -38 -32 -96 -4 -71 4 -93 36 -93 11 0 19 -4 19 -10 0 -5 7 -10 15 -10
8 0 15 5 15 10 0 6 -7 10 -15 10 -19 0 -20 36 -1 43 22 9 56 -4 56 -20 0 -10
6 -13 16 -9 9 3 20 6 25 6 19 0 8 28 -13 33 -18 5 -19 8 -8 21 7 9 20 16 29
16 19 1 51 60 51 96 0 13 7 27 16 31 8 3 20 16 25 29 4 13 15 24 23 24 7 0 16
9 19 20 3 12 14 20 25 20 11 0 22 7 24 17 2 9 20 21 43 27 41 12 55 36 37 64
-11 16 -71 24 -97 13z"/>
<path d="M3757 7294 c-4 -4 -7 -14 -7 -21 0 -10 11 -13 43 -11 29 2 42 8 42
18 0 16 -64 27 -78 14z"/>
<path d="M2315 7280 c-3 -5 -1 -10 4 -10 6 0 11 5 11 10 0 6 -2 10 -4 10 -3 0
-8 -4 -11 -10z"/>
<path d="M7471 7259 c-15 -35 -52 -53 -93 -44 -25 6 -30 3 -44 -30 -14 -34
-14 -38 3 -50 21 -16 132 -26 155 -14 32 17 36 169 5 169 -7 0 -18 -14 -26
-31z"/>
<path d="M4014 7245 c-8 -21 3 -48 19 -43 19 7 22 58 2 58 -8 0 -18 -7 -21
-15z"/>
<path d="M2910 7215 c0 -31 -4 -37 -30 -46 -16 -6 -30 -17 -30 -24 0 -20 -41
-26 -154 -24 -106 2 -126 -2 -126 -27 0 -12 27 -14 169 -11 122 2 173 6 185
16 9 7 13 17 10 22 -3 5 8 9 25 9 16 0 33 -5 36 -10 9 -14 35 7 35 26 0 15 -8
17 -57 14 -31 -1 -32 0 -35 41 -4 54 -28 66 -28 14z"/>
<path d="M3355 7237 c-11 -8 -36 -18 -55 -22 -53 -11 -76 -25 -59 -36 30 -19
138 -2 124 20 -3 6 15 11 42 13 35 2 48 7 48 18 0 20 -73 25 -100 7z"/>
<path d="M3565 7223 c-14 -15 -25 -31 -25 -35 0 -12 35 -9 47 3 6 6 35 14 64
17 40 5 55 11 57 25 3 15 -5 17 -57 17 -53 0 -63 -3 -86 -27z"/>
<path d="M2446 7201 c-4 -7 -5 -15 -2 -18 9 -9 19 4 14 18 -4 11 -6 11 -12 0z"/>
<path d="M3977 7173 c-4 -3 -7 -17 -7 -30 0 -35 34 -26 38 10 3 26 -14 37 -31
20z"/>
<path d="M3133 7153 c-24 -9 -13 -23 17 -23 20 0 30 5 30 15 0 15 -22 19 -47
8z"/>
<path d="M3417 7146 c-3 -8 -16 -16 -29 -18 -19 -2 -23 -9 -21 -32 3 -42 21
-56 39 -31 13 18 26 20 119 20 57 0 106 3 110 7 19 18 -13 28 -91 28 -73 0
-85 3 -96 20 -15 24 -24 25 -31 6z"/>
<path d="M2395 7108 c-2 -7 -5 -20 -6 -28 -4 -38 0 -40 64 -34 34 3 69 8 77
11 26 9 -21 22 -57 16 -28 -4 -34 -1 -44 21 -13 28 -27 34 -34 14z"/>
<path d="M3745 7070 c-3 -5 0 -13 8 -16 23 -8 127 0 130 11 3 14 -129 19 -138
5z"/>
<path d="M2293 7032 c-13 -2 -23 -7 -23 -12 0 -11 45 -21 64 -14 36 14 4 33
-41 26z"/>
<path d="M3890 6996 c0 -35 4 -46 15 -46 21 0 29 24 18 57 -16 46 -33 40 -33
-11z"/>
<path d="M4017 7033 c-14 -13 -7 -33 11 -33 24 0 32 8 25 26 -5 15 -25 19 -36
7z"/>
<path d="M2824 7016 c-8 -21 -1 -61 11 -61 6 0 11 17 13 38 3 37 -13 52 -24
23z"/>
<path d="M3336 7008 c-11 -44 -7 -70 11 -66 20 4 27 29 19 64 -8 30 -22 31
-30 2z"/>
<path d="M2156 6981 c-7 -10 17 -21 45 -21 10 0 19 7 19 15 0 17 -55 22 -64 6z"/>
<path d="M2047 6944 c-15 -15 -6 -24 24 -24 20 0 29 4 27 13 -5 14 -40 21 -51
11z"/>
<path d="M1738 6908 c-30 -33 -39 -88 -14 -88 8 0 30 16 50 36 33 33 35 39 23
57 -20 30 -29 29 -59 -5z"/>
<path d="M3290 6872 c0 -21 3 -42 7 -45 13 -13 33 16 33 49 0 27 -4 34 -20 34
-17 0 -20 -7 -20 -38z"/>
<path d="M7570 6891 c0 -5 5 -13 10 -16 6 -3 10 -2 10 4 0 5 -4 13 -10 16 -5
3 -10 2 -10 -4z"/>
<path d="M2786 6883 c-3 -3 -6 -21 -6 -39 0 -26 4 -32 15 -28 8 4 15 19 15 34
0 29 -12 45 -24 33z"/>
<path d="M2193 6864 c-7 -3 -13 -12 -13 -19 0 -7 -15 -16 -33 -19 -40 -7 -86
-61 -68 -79 21 -21 12 -73 -18 -106 -16 -17 -34 -31 -40 -31 -6 0 -11 -7 -11
-15 0 -9 -11 -20 -25 -25 -14 -5 -25 -16 -25 -24 0 -8 -9 -18 -20 -21 -11 -3
-20 -12 -20 -19 0 -8 -7 -19 -16 -26 -13 -11 -18 -10 -36 7 -18 18 -23 19 -47
7 -26 -13 -27 -17 -29 -93 l-2 -80 38 -3 c43 -4 54 -28 20 -43 -21 -9 -23 -15
-19 -90 1 -44 8 -86 13 -92 6 -7 7 -13 2 -13 -5 0 -3 -4 4 -9 9 -5 18 -42 23
-91 7 -58 15 -87 26 -95 11 -8 18 -32 21 -73 2 -34 9 -65 16 -70 19 -15 72 6
84 33 6 14 19 25 27 25 9 0 35 20 59 45 25 25 49 45 55 45 6 0 15 9 21 20 6
11 17 20 24 20 8 0 16 9 19 20 3 11 12 20 21 20 14 0 35 16 92 70 12 11 26 20
32 20 6 0 14 9 17 20 3 11 15 20 25 20 10 0 32 13 48 29 28 29 29 32 20 83 -5
29 -16 60 -23 68 -8 8 -18 44 -24 79 -6 35 -17 71 -25 80 -8 9 -16 45 -18 85
-3 52 -9 72 -23 82 -29 21 -63 17 -89 -11 -13 -14 -30 -25 -38 -25 -9 0 -18
-9 -21 -20 -3 -11 -13 -20 -22 -20 -10 0 -33 -9 -51 -21 -32 -19 -54 -19 -54
2 0 5 8 9 18 9 11 0 24 11 30 25 7 15 20 25 32 25 11 0 28 9 37 20 10 11 28
20 40 20 16 0 23 6 23 19 0 14 10 21 35 25 42 8 47 22 43 131 l-3 80 -70 2
c-38 1 -76 -1 -82 -3z m-113 -394 c0 -11 -5 -20 -11 -20 -6 0 -24 -13 -41 -30
-16 -16 -35 -30 -43 -30 -7 0 -15 -7 -19 -15 -3 -8 -15 -15 -26 -15 -13 0 -20
-7 -20 -20 0 -15 -7 -20 -26 -20 -19 0 -25 5 -22 17 2 10 12 19 23 22 11 2 26
12 33 22 7 11 19 19 26 19 8 0 16 9 19 20 3 11 12 20 21 20 8 0 26 11 40 25
30 30 46 32 46 5z"/>
<path d="M3850 6860 c-12 -7 -12 -12 -2 -22 14 -14 35 1 24 19 -5 8 -13 9 -22
3z"/>
<path d="M7500 6841 c0 -5 6 -12 13 -14 9 -4 9 -8 1 -14 -6 -4 -15 -27 -19
-50 -6 -36 -4 -43 9 -43 9 0 16 8 16 18 0 10 10 26 22 37 15 12 18 20 10 23
-7 2 -12 15 -12 28 0 17 -6 24 -20 24 -11 0 -20 -4 -20 -9z"/>
<path d="M1580 6823 c-8 -2 -21 -7 -29 -9 -21 -7 2 -27 34 -30 21 -2 25 2 25
22 0 24 -3 26 -30 17z"/>
<path d="M2463 6823 c-15 -3 -23 -12 -23 -25 0 -11 -8 -22 -20 -25 -28 -7 -15
-23 20 -23 15 0 30 7 34 15 3 8 15 15 26 15 25 0 38 29 19 41 -15 9 -19 9 -56
2z"/>
<path d="M3807 6813 c-11 -10 -8 -61 3 -68 10 -6 30 34 30 61 0 14 -21 19 -33
7z"/>
<path d="M3247 6761 c-8 -39 2 -71 19 -64 19 7 20 93 0 93 -7 0 -16 -13 -19
-29z"/>
<path d="M1663 6760 c-3 -11 -11 -20 -18 -20 -8 0 -15 -10 -17 -22 -2 -13 -11
-24 -23 -27 -35 -6 -65 -33 -65 -56 0 -17 -7 -25 -22 -27 -13 -2 -23 -10 -23
-18 0 -23 32 -24 45 -1 6 12 16 21 23 21 7 0 23 14 35 30 13 17 28 30 35 30 7
0 18 9 25 20 7 11 18 20 25 20 13 0 39 55 29 64 -13 14 -44 4 -49 -14z"/>
<path d="M1888 6738 c-3 -15 -2 -32 2 -38 11 -18 18 10 10 40 l-6 25 -6 -27z"/>
<path d="M2510 6746 c-14 -6 -31 -19 -38 -28 -7 -10 -20 -18 -29 -18 -13 0
-15 -12 -11 -82 3 -48 12 -95 21 -112 9 -16 19 -54 23 -84 3 -29 12 -56 19
-59 8 -2 16 -31 20 -66 4 -34 12 -65 19 -69 22 -15 57 -7 78 17 12 14 32 25
46 25 15 0 26 7 29 20 3 11 12 20 20 20 8 0 29 11 47 25 18 14 40 25 49 25 10
0 17 4 17 10 0 5 19 20 41 32 23 13 52 29 64 36 49 26 -7 91 -79 93 -22 0 -49
3 -58 7 -19 8 -12 25 12 31 8 2 35 9 60 15 l45 10 -67 10 -68 9 0 63 c0 63
-13 89 -32 63 -5 -8 -7 -37 -4 -66 4 -46 2 -53 -15 -58 -36 -12 -69 3 -69 29
0 34 -10 56 -26 56 -7 0 -17 7 -22 16 -15 27 -63 43 -92 30z"/>
<path d="M7680 6730 c0 -6 7 -10 15 -10 8 0 15 2 15 4 0 2 -7 6 -15 10 -8 3
-15 1 -15 -4z"/>
<path d="M1796 6695 c-7 -18 -8 -135 -2 -135 2 0 12 -3 21 -6 14 -6 16 3 13
71 -3 75 -17 107 -32 70z"/>
<path d="M3767 6703 c-4 -3 -7 -21 -7 -40 0 -23 5 -33 15 -33 11 0 15 11 15
40 0 38 -8 49 -23 33z"/>
<path d="M3953 6613 c-54 -72 -62 -79 -106 -87 -42 -8 -66 -26 -34 -26 6 0 18
-4 26 -9 12 -8 12 -14 -4 -37 l-18 -28 34 -28 c19 -16 52 -41 74 -56 22 -15
73 -51 113 -80 71 -52 72 -53 72 -98 0 -28 4 -43 10 -39 6 3 10 17 10 31 0 34
14 30 79 -18 32 -24 117 -86 189 -138 115 -82 132 -98 132 -122 0 -31 14 -37
27 -13 9 15 103 -49 341 -231 82 -63 155 -114 164 -114 4 0 36 39 72 88 36 48
69 92 73 97 5 6 19 26 31 46 l22 36 -23 20 c-12 11 -53 42 -92 68 -367 255
-401 281 -407 325 -3 22 -8 25 -40 25 -23 0 -47 8 -65 22 -15 12 -71 52 -123
87 -116 80 -178 124 -216 154 -16 13 -56 43 -89 66 -33 23 -90 63 -127 89
l-66 47 -59 -77z"/>
<path d="M3295 6599 c-12 -19 6 -24 85 -24 79 0 106 9 80 25 -21 13 -157 12
-165 -1z"/>
<path d="M2948 6593 c12 -2 30 -2 40 0 9 3 -1 5 -23 4 -22 0 -30 -2 -17 -4z"/>
<path d="M3720 6585 c0 -11 -16 -15 -67 -17 -53 -2 -68 -6 -68 -18 0 -10 14
-17 45 -21 25 -3 50 -7 55 -9 6 -1 22 -2 38 -1 22 1 27 6 27 25 0 31 -10 56
-21 56 -5 0 -9 -7 -9 -15z"/>
<path d="M4272 6548 c5 -32 28 -35 28 -4 0 17 -5 26 -16 26 -10 0 -14 -7 -12
-22z"/>
<path d="M1852 6540 c0 -14 2 -19 5 -12 2 6 2 18 0 25 -3 6 -5 1 -5 -13z"/>
<path d="M1704 6495 c-9 -19 -20 -35 -24 -35 -4 0 -10 -23 -13 -51 -4 -31 -13
-56 -23 -63 -10 -8 -19 -32 -22 -66 -4 -40 -9 -54 -23 -57 -11 -3 -19 -10 -19
-17 0 -6 -10 -16 -22 -21 -27 -12 -32 -32 -24 -90 5 -32 12 -45 29 -50 22 -7
21 -7 -5 -18 -15 -6 -28 -20 -30 -31 -2 -15 -10 -21 -28 -21 -21 0 -27 -7 -37
-45 -7 -25 -13 -61 -13 -80 0 -23 -7 -42 -20 -53 -12 -10 -20 -29 -20 -47 0
-16 -9 -45 -19 -63 -15 -27 -17 -42 -10 -73 4 -21 13 -60 18 -86 10 -48 6 -78
-10 -78 -5 0 -9 -4 -9 -10 0 -5 7 -10 15 -10 8 0 15 -7 15 -15 0 -8 9 -23 20
-32 11 -10 20 -25 20 -35 0 -10 7 -18 15 -18 8 0 19 -9 25 -20 6 -12 21 -20
35 -20 25 0 65 31 65 49 0 5 9 13 20 16 11 4 20 15 20 27 0 11 8 22 20 25 11
3 20 14 20 24 0 12 7 19 20 19 13 0 24 10 31 27 7 19 13 23 21 15 13 -13 -47
-102 -69 -102 -7 0 -17 -8 -20 -17 -4 -10 -15 -24 -25 -31 -10 -7 -18 -20 -18
-28 0 -8 -9 -14 -20 -14 -13 0 -20 -7 -20 -20 0 -10 -9 -24 -20 -30 -17 -9
-20 -17 -14 -48 4 -20 11 -45 16 -54 11 -23 64 -24 76 -1 7 11 15 14 28 8 11
-4 25 -7 32 -6 16 3 15 -14 -3 -48 -11 -21 -24 -30 -53 -35 -40 -6 -44 -11
-66 -80 -7 -19 8 -36 30 -36 6 0 16 17 22 39 9 28 20 42 42 51 16 7 32 21 35
31 4 10 15 19 26 19 10 0 19 7 19 15 0 8 9 15 19 15 11 0 27 10 35 22 13 18
26 23 61 23 26 0 45 5 45 11 0 6 9 19 20 29 11 10 20 24 20 31 0 8 15 14 37
16 27 2 39 8 41 21 3 13 -4 17 -31 17 -19 0 -40 -7 -47 -15 -7 -8 -21 -15 -32
-15 -13 0 -24 -11 -31 -30 -11 -30 -22 -35 -51 -24 -17 6 -22 34 -7 34 4 0 20
12 35 26 24 25 26 33 26 110 0 77 2 84 20 84 17 0 20 7 20 43 0 24 5 48 11 54
8 8 5 20 -12 42 l-23 32 -21 -35 c-11 -19 -28 -37 -37 -40 -10 -2 -18 -14 -18
-25 0 -12 -6 -21 -14 -21 -8 0 -21 -3 -30 -6 -12 -4 -16 0 -16 15 0 12 5 21
11 21 15 0 56 44 64 70 3 11 15 20 26 20 10 0 19 7 19 15 0 8 9 19 20 25 24
13 26 37 4 61 -9 10 -19 40 -21 66 -3 26 -11 53 -19 59 -17 13 -33 85 -34 145
0 29 -6 51 -15 59 -8 7 -15 29 -15 49 0 66 -9 81 -46 81 -38 0 -44 14 -14 30
11 6 20 19 20 29 0 11 7 21 15 25 15 5 22 46 7 46 -14 0 -30 95 -25 144 4 35
2 50 -8 57 -22 14 -27 11 -45 -26z m0 -323 c2 -4 -2 -18 -9 -31 l-13 -24 -6
21 c-10 31 13 59 28 34z m-40 -53 c-7 -11 -34 -12 -34 -1 0 14 11 21 26 15 8
-3 11 -9 8 -14z m-44 -34 c0 -16 -27 -32 -37 -22 -3 4 -3 13 0 22 8 20 37 20
37 0z m165 -896 c9 -13 7 -15 -32 -22 -28 -6 -33 -4 -33 13 0 15 7 20 29 20
17 0 33 -5 36 -11z"/>
<path d="M6996 6514 c-12 -32 -5 -70 17 -91 67 -66 66 -65 115 -57 l47 7 -38
7 c-51 9 -84 46 -92 104 -6 35 -12 46 -25 46 -10 0 -21 -7 -24 -16z"/>
<path d="M3166 6486 c-4 -18 -2 -44 3 -57 l9 -24 10 25 c10 27 5 90 -8 90 -4
0 -11 -15 -14 -34z"/>
<path d="M6210 6510 c0 -12 45 -24 60 -15 5 3 8 11 5 16 -8 12 -65 12 -65 -1z"/>
<path d="M1511 6494 c0 -11 3 -14 6 -6 3 7 2 16 -1 19 -3 4 -6 -2 -5 -13z"/>
<path d="M3686 6477 c-5 -15 -6 -31 -2 -34 11 -11 18 5 14 34 l-4 28 -8 -28z"/>
<path d="M6410 6430 c0 -19 7 -33 20 -40 11 -6 20 -15 20 -20 0 -12 -48 -83
-62 -91 -16 -10 24 -62 81 -104 65 -47 85 -42 145 41 25 35 46 70 46 77 0 14
-26 34 -153 121 -81 54 -97 57 -97 16z m135 -126 c23 -15 24 -17 9 -45 -17
-34 -33 -36 -65 -10 -22 18 -22 19 -6 45 20 30 29 32 62 10z"/>
<path d="M6647 6386 c-14 -21 -14 -26 -1 -45 19 -26 36 -27 57 -3 22 24 21 41
0 58 -26 19 -39 17 -56 -10z"/>
<path d="M2918 6380 c-14 -11 -29 -20 -33 -20 -4 0 -20 -11 -37 -25 -16 -14
-36 -25 -43 -25 -8 0 -19 -9 -25 -20 -6 -11 -20 -20 -31 -20 -11 0 -22 -6 -25
-14 -3 -8 -20 -20 -37 -27 -18 -7 -36 -19 -42 -25 -5 -7 -19 -14 -29 -16 -23
-4 -43 -63 -28 -81 5 -7 13 -27 17 -45 4 -18 13 -36 20 -38 7 -3 15 -22 19
-43 3 -21 12 -44 20 -50 8 -6 17 -28 21 -48 4 -21 15 -44 25 -53 10 -9 20 -27
22 -40 3 -22 8 -25 43 -25 l40 0 3 92 c2 65 7 95 17 103 8 7 15 19 15 27 0 8
12 25 26 38 17 16 28 39 32 67 3 23 11 49 19 56 7 8 13 36 13 66 0 44 4 56 22
68 17 11 22 25 22 64 1 42 -2 49 -20 52 -11 2 -32 -6 -46 -18z"/>
<path d="M3640 6340 c0 -11 5 -20 10 -20 6 0 10 9 10 20 0 11 -4 20 -10 20 -5
0 -10 -9 -10 -20z"/>
<path d="M3126 6334 c-8 -20 -8 -58 0 -79 11 -27 24 3 24 53 0 42 -12 56 -24
26z"/>
<path d="M4746 6301 c-8 -13 4 -42 15 -35 12 7 12 44 0 44 -6 0 -12 -4 -15 -9z"/>
<path d="M7566 6267 c-5 -15 -6 -31 -2 -34 11 -11 18 5 14 34 l-4 28 -8 -28z"/>
<path d="M6972 6272 c-7 -2 -12 -13 -12 -24 0 -17 4 -19 28 -13 15 3 33 12 40
19 11 11 9 14 -16 18 -16 2 -34 2 -40 0z"/>
<path d="M3640 6183 c-24 -32 -53 -66 -66 -76 -13 -10 -24 -24 -24 -31 0 -7
-14 -32 -30 -55 -29 -39 -30 -44 -20 -94 5 -28 26 -113 45 -187 53 -197 65
-249 72 -303 3 -26 10 -50 14 -53 16 -9 10 -42 -8 -48 -10 -3 -70 -7 -134 -10
-64 -3 -122 -8 -130 -10 -8 -3 -63 -8 -124 -11 -60 -4 -141 -10 -179 -13 l-70
-7 -98 -139 c-55 -76 -96 -142 -91 -145 50 -42 85 -59 130 -64 29 -3 55 -2 58
2 4 8 260 28 295 23 8 -1 38 3 65 8 28 5 125 12 218 15 130 4 168 3 171 -7 2
-7 11 -35 19 -63 8 -27 18 -73 22 -102 6 -45 4 -52 -12 -56 -15 -4 -15 -5 3
-6 24 -1 34 -19 34 -56 0 -13 4 -26 9 -29 5 -3 23 -68 41 -143 17 -76 38 -155
46 -176 13 -36 13 -38 -7 -45 -19 -7 -19 -9 -4 -22 9 -7 27 -37 40 -66 29 -62
83 -109 120 -102 14 3 25 2 25 -2 0 -4 12 -5 28 -2 l27 5 -27 9 c-16 6 -28 13
-28 16 0 4 18 32 40 62 21 30 60 84 85 120 l46 66 -15 49 c-15 53 -25 91 -90
367 -23 97 -45 180 -49 184 -4 4 -7 11 -7 15 0 18 236 40 570 53 52 2 96 8 97
12 5 14 149 214 172 238 27 29 27 53 -1 61 -13 4 -35 19 -50 32 -21 21 -33 24
-60 19 -18 -3 -89 -8 -158 -11 -116 -5 -149 -7 -285 -20 -150 -14 -360 -24
-366 -18 -8 10 -35 108 -65 233 -12 52 -27 111 -32 130 -28 97 -41 149 -46
185 -3 22 -17 81 -32 130 -14 50 -28 100 -31 113 -6 25 -72 82 -96 82 -8 0
-34 -26 -57 -57z"/>
<path d="M6320 6196 c-4 -11 -24 -45 -44 -73 -20 -29 -36 -56 -36 -60 0 -5 32
-30 71 -58 39 -27 77 -54 85 -60 10 -7 18 -4 28 10 9 11 16 23 16 26 0 4 -25
25 -55 48 -30 23 -55 45 -55 49 1 12 38 52 49 52 6 0 33 -14 61 -31 55 -34 83
-33 78 3 -4 27 -130 116 -165 116 -16 0 -27 -8 -33 -22z"/>
<path d="M4780 6165 c0 -9 9 -15 24 -15 30 0 42 15 20 24 -27 10 -44 7 -44 -9z"/>
<path d="M1460 6120 c0 -23 -4 -30 -20 -30 -22 0 -27 -15 -9 -25 6 -4 19 2 30
13 10 12 26 25 36 30 14 9 15 13 4 26 -22 26 -41 19 -41 -14z"/>
<path d="M3075 6104 c-5 -34 -12 -48 -26 -51 -11 -3 -18 -11 -16 -17 5 -16
289 -15 294 1 3 9 -24 13 -104 15 -107 3 -108 3 -111 28 -9 82 -26 93 -37 24z"/>
<path d="M4867 6134 c-11 -11 3 -24 24 -24 12 0 19 5 17 13 -5 14 -31 21 -41
11z"/>
<path d="M8586 6105 c-5 -20 0 -32 23 -55 36 -37 66 -40 57 -7 -3 12 -6 30 -6
39 0 9 -14 24 -32 32 -39 20 -35 21 -42 -9z"/>
<path d="M2470 6085 c0 -9 -8 -19 -17 -22 -10 -4 -24 -14 -30 -24 -7 -9 -24
-20 -37 -23 -14 -3 -30 -15 -36 -26 -6 -11 -20 -20 -30 -20 -11 0 -20 -7 -20
-15 0 -8 -5 -15 -11 -15 -18 0 -157 -116 -148 -124 2 -2 19 -7 36 -11 29 -6
34 -4 43 20 10 25 13 27 53 21 23 -4 58 -6 78 -6 23 0 39 -5 42 -14 3 -7 21
-16 41 -20 22 -4 37 -14 41 -26 8 -26 61 -27 88 -3 18 17 19 17 32 0 6 -9 21
-17 33 -17 23 0 38 28 22 44 -5 5 -10 16 -10 23 0 7 -9 22 -20 33 -11 11 -20
30 -20 43 0 12 -9 33 -20 47 -11 14 -20 35 -20 46 0 12 -9 33 -20 47 -11 14
-20 32 -20 41 0 10 -9 16 -25 16 -16 0 -25 -6 -25 -15z"/>
<path d="M4065 6077 c-8 -31 0 -61 15 -52 12 8 13 45 1 64 -8 12 -11 9 -16
-12z"/>
<path d="M4954 6088 c-3 -5 -2 -14 4 -20 12 -12 42 -4 42 11 0 13 -39 21 -46
9z"/>
<path d="M1510 6040 c0 -5 5 -10 10 -10 6 0 10 5 10 10 0 6 -4 10 -10 10 -5 0
-10 -4 -10 -10z"/>
<path d="M6020 6040 c0 -5 7 -10 16 -10 8 0 12 5 9 10 -3 6 -10 10 -16 10 -5
0 -9 -4 -9 -10z"/>
<path d="M6218 6022 c-18 -7 -72 -69 -102 -115 -13 -21 -15 -32 -6 -42 8 -10
5 -14 -13 -19 -14 -3 -41 -26 -62 -51 -34 -42 -39 -45 -54 -31 -25 23 -40 20
-53 -10 -11 -24 -9 -29 19 -53 130 -110 203 -158 203 -132 0 5 6 16 13 23 7 7
28 35 46 61 25 38 32 56 29 83 -4 31 -2 34 24 34 27 0 59 35 122 132 17 27 17
27 -12 42 -17 9 -36 21 -44 28 -29 29 -71 58 -82 57 -6 0 -19 -3 -28 -7z m82
-115 c0 -7 -38 -47 -44 -47 -9 0 27 49 37 50 4 0 7 -2 7 -3z m-140 -182 c-1
-5 -9 -20 -20 -33 -18 -22 -20 -22 -45 -6 -29 19 -31 31 -9 62 15 22 16 22 45
5 16 -10 29 -22 29 -28z"/>
<path d="M1335 5990 c3 -5 8 -10 11 -10 2 0 4 5 4 10 0 6 -5 10 -11 10 -5 0
-7 -4 -4 -10z"/>
<path d="M4020 5946 c0 -31 -17 -37 -69 -25 -48 11 -81 0 -59 -18 7 -6 29 -13
48 -15 31 -3 35 -6 38 -35 3 -32 22 -48 22 -19 0 17 21 26 63 27 28 0 30 1 12
10 -50 24 -70 39 -54 39 17 0 33 36 23 52 -10 16 -24 7 -24 -16z"/>
<path d="M6450 5960 c0 -5 5 -10 10 -10 6 0 10 5 10 10 0 6 -4 10 -10 10 -5 0
-10 -4 -10 -10z"/>
<path d="M3036 5925 c-8 -42 1 -78 17 -72 16 5 20 31 12 73 -8 44 -21 43 -29
-1z"/>
<path d="M8661 5929 c-21 -17 -22 -21 -9 -37 8 -9 18 -25 21 -34 8 -22 30 -23
47 -3 11 13 9 22 -6 51 -24 46 -25 46 -53 23z"/>
<path d="M1167 5843 c-10 -9 -9 -83 1 -83 4 0 12 16 18 35 8 26 8 37 -1 45 -6
5 -15 7 -18 3z"/>
<path d="M4162 5831 c-11 -7 -10 -10 3 -15 29 -11 55 -7 55 9 0 16 -36 20 -58
6z"/>
<path d="M4491 5796 c-9 -10 -8 -16 4 -26 13 -11 15 -8 15 14 0 30 -3 32 -19
12z"/>
<path d="M8710 5778 c0 -39 11 -60 26 -50 16 10 5 82 -12 82 -9 0 -14 -11 -14
-32z"/>
<path d="M2093 5788 c2 -7 10 -13 17 -13 7 0 15 6 18 13 2 7 -5 12 -18 12 -13
0 -20 -5 -17 -12z"/>
<path d="M3470 5760 c0 -22 5 -40 10 -40 6 0 10 18 10 40 0 22 -4 40 -10 40
-5 0 -10 -18 -10 -40z"/>
<path d="M4277 5794 c-22 -22 22 -34 53 -14 13 8 13 10 -2 10 -9 0 -23 2 -30
5 -8 3 -17 2 -21 -1z"/>
<path d="M4390 5749 c-20 -8 -22 -12 -10 -19 8 -5 25 -10 38 -10 15 0 22 -6
22 -19 0 -26 8 -30 48 -24 37 6 43 28 10 39 -13 4 -27 13 -33 19 -15 19 -47
25 -75 14z"/>
<path d="M2060 5740 c0 -5 5 -10 11 -10 5 0 7 5 4 10 -3 6 -8 10 -11 10 -2 0
-4 -4 -4 -10z"/>
<path d="M6664 5739 c-10 -17 13 -36 27 -22 12 12 4 33 -11 33 -5 0 -12 -5
-16 -11z"/>
<path d="M1972 5678 c3 -39 6 -43 30 -46 22 -3 30 2 38 23 20 52 14 65 -31 65
l-40 0 3 -42z"/>
<path d="M4575 5661 c-7 -12 12 -24 25 -16 11 7 4 25 -10 25 -5 0 -11 -4 -15
-9z"/>
<path d="M2998 5633 c-1 -10 -2 -43 -2 -73 l-1 -55 -42 -3 c-56 -4 -57 -27 -3
-36 39 -6 291 2 299 10 12 11 -19 17 -116 23 l-108 6 -3 73 c-2 39 -7 72 -12
72 -6 0 -11 -8 -12 -17z"/>
<path d="M3424 5616 c-8 -22 4 -68 16 -61 13 8 13 62 0 70 -6 3 -13 -1 -16 -9z"/>
<path d="M6380 5592 c0 -5 7 -9 15 -9 8 0 12 4 9 9 -3 4 -9 8 -15 8 -5 0 -9
-4 -9 -8z"/>
<path d="M4745 5570 c-3 -5 1 -10 10 -10 9 0 13 5 10 10 -3 6 -8 10 -10 10 -2
0 -7 -4 -10 -10z"/>
<path d="M4360 5531 c0 -6 5 -13 10 -16 6 -3 10 1 10 9 0 9 -4 16 -10 16 -5 0
-10 -4 -10 -9z"/>
<path d="M4817 5534 c-9 -10 2 -24 19 -24 8 0 14 7 14 15 0 15 -21 21 -33 9z"/>
<path d="M5980 5519 c0 -5 5 -7 10 -4 6 3 10 8 10 11 0 2 -4 4 -10 4 -5 0 -10
-5 -10 -11z"/>
<path d="M2710 5490 c-20 -12 -13 -16 40 -24 47 -6 77 4 66 23 -9 13 -85 14
-106 1z"/>
<path d="M4870 5486 c0 -8 5 -18 10 -21 13 -8 42 14 34 26 -9 15 -44 10 -44
-5z"/>
<path d="M3375 5460 c-5 -8 -1 -39 11 -92 5 -22 7 -20 13 12 6 34 8 35 55 40
52 5 73 26 34 34 -62 13 -107 15 -113 6z"/>
<path d="M2406 5449 c-30 -18 0 -29 82 -29 65 0 72 2 72 20 0 18 -7 20 -67 20
-38 0 -76 -5 -87 -11z"/>
<path d="M4314 5449 c-10 -17 13 -36 27 -22 12 12 4 33 -11 33 -5 0 -12 -5
-16 -11z"/>
<path d="M2223 5399 c-3 -11 -20 -19 -49 -24 -34 -5 -44 -10 -44 -25 0 -18 7
-19 63 -17 55 2 62 4 65 23 3 18 11 22 58 26 52 4 73 12 62 23 -3 3 -38 7 -78
8 -62 3 -74 0 -77 -14z"/>
<path d="M1330 5400 c0 -5 5 -10 10 -10 6 0 10 5 10 10 0 6 -4 10 -10 10 -5 0
-10 -4 -10 -10z"/>
<path d="M1294 5366 c-8 -22 3 -33 18 -18 9 9 9 15 0 24 -9 9 -13 7 -18 -6z"/>
<path d="M6063 5360 c-1 -11 2 -18 8 -15 11 7 12 35 1 35 -4 0 -8 -9 -9 -20z"/>
<path d="M1246 5323 c-11 -11 -6 -23 9 -23 8 0 15 4 15 9 0 13 -16 22 -24 14z"/>
<path d="M1207 5293 c-3 -5 -8 -27 -12 -50 -4 -27 -12 -43 -21 -43 -8 0 -14
-7 -14 -15 0 -8 7 -15 15 -15 9 0 18 7 21 15 4 8 12 15 19 15 14 0 27 63 18
86 -6 15 -19 19 -26 7z"/>
<path d="M2231 5253 c0 -21 4 -47 9 -58 6 -14 9 -4 9 38 1 32 -3 57 -9 57 -5
0 -10 -17 -9 -37z"/>
<path d="M1126 5111 c-4 -7 -5 -15 -2 -18 9 -9 19 4 14 18 -4 11 -6 11 -12 0z"/>
<path d="M1077 5063 c-12 -11 -8 -23 8 -23 8 0 15 7 15 15 0 16 -12 20 -23 8z"/>
<path d="M1750 5005 c-7 -8 -21 -15 -33 -15 -17 0 -19 -4 -13 -42 8 -46 37
-81 64 -76 14 3 17 16 18 76 2 74 -8 90 -36 57z"/>
<path d="M1301 4964 c0 -11 3 -14 6 -6 3 7 2 16 -1 19 -3 4 -6 -2 -5 -13z"/>
<path d="M1507 4943 c-9 -9 -9 -43 1 -43 18 1 34 19 29 34 -7 17 -19 21 -30 9z"/>
<path d="M1030 4930 c0 -5 5 -10 10 -10 6 0 10 5 10 10 0 6 -4 10 -10 10 -5 0
-10 -4 -10 -10z"/>
<path d="M2953 4913 c-18 -7 -16 -40 3 -47 17 -6 34 0 34 13 0 15 -25 39 -37
34z"/>
<path d="M2603 4893 c-9 -22 5 -45 25 -39 9 3 44 8 77 11 189 15 195 30 17 37
-89 4 -115 2 -119 -9z"/>
<path d="M1460 4879 c0 -24 23 -21 28 4 2 10 -3 17 -12 17 -10 0 -16 -9 -16
-21z"/>
<path d="M3115 4890 c-9 -15 17 -21 75 -18 32 2 55 8 58 16 5 15 -123 17 -133
2z"/>
<path d="M1001 4844 c0 -11 3 -14 6 -6 3 7 2 16 -1 19 -3 4 -6 -2 -5 -13z"/>
<path d="M1619 4853 c-1 -4 0 -12 1 -18 2 -5 6 -25 9 -44 10 -55 26 -47 25 11
0 41 -4 54 -17 56 -9 2 -18 0 -18 -5z"/>
<path d="M2425 4850 c-3 -5 0 -13 8 -16 23 -8 92 0 92 11 0 14 -92 19 -100 5z"/>
<path d="M1420 4831 c0 -12 0 -24 0 -28 0 -5 6 -8 12 -8 7 0 12 11 12 24 0 14
-5 26 -12 29 -7 2 -12 -5 -12 -17z"/>
<path d="M2303 4824 c-15 -32 -7 -54 18 -54 24 0 33 21 25 55 -8 32 -28 32
-43 -1z"/>
<path d="M3455 4840 c7 -11 70 -8 82 3 3 4 -15 7 -41 7 -30 0 -45 -4 -41 -10z"/>
<path d="M3608 4813 c-28 -7 -21 -20 14 -27 33 -7 55 5 44 23 -7 11 -27 12
-58 4z"/>
<path d="M1970 4800 c0 -5 4 -10 9 -10 6 0 13 5 16 10 3 6 -1 10 -9 10 -9 0
-16 -4 -16 -10z"/>
<path d="M1367 4773 c-4 -3 -7 -15 -7 -25 0 -10 -7 -18 -16 -18 -9 0 -14 -7
-12 -17 5 -26 26 -27 30 -1 2 13 8 23 13 23 20 0 34 16 28 30 -5 16 -25 20
-36 8z"/>
<path d="M2211 4769 c-17 -7 -21 -13 -14 -20 15 -15 68 -7 68 11 0 18 -22 22
-54 9z"/>
<path d="M1670 4716 c0 -17 5 -26 16 -26 10 0 14 7 12 22 -5 32 -28 35 -28 4z"/>
<path d="M2118 4729 c-30 -17 -20 -30 19 -27 27 2 39 8 41 21 4 20 -31 23 -60
6z"/>
<path d="M4470 4731 c0 -6 4 -13 10 -16 6 -3 7 1 4 9 -7 18 -14 21 -14 7z"/>
<path d="M1891 4714 c0 -11 3 -14 6 -6 3 7 2 16 -1 19 -3 4 -6 -2 -5 -13z"/>
<path d="M2017 4671 c-2 -11 -15 -21 -28 -23 -31 -4 -31 -32 -1 -36 24 -4 55
15 47 28 -3 4 9 10 25 14 43 8 40 36 -4 36 -25 0 -35 -5 -39 -19z"/>
<path d="M1294 4645 c-8 -20 3 -48 16 -40 13 8 13 55 0 55 -6 0 -13 -7 -16
-15z"/>
<path d="M1806 4641 c-4 -7 -5 -15 -2 -18 9 -9 19 4 14 18 -4 11 -6 11 -12 0z"/>
<path d="M1924 4596 c-18 -14 -18 -15 -1 -22 22 -8 46 11 31 26 -7 7 -17 5
-30 -4z"/>
<path d="M1724 4589 c-3 -5 4 -9 15 -9 12 0 24 0 28 -1 4 0 9 4 11 9 4 12 -46
13 -54 1z"/>
<path d="M4455 4558 c-3 -9 -5 -26 -3 -38 3 -19 4 -20 14 -3 6 10 8 27 4 38
-7 18 -9 18 -15 3z"/>
<path d="M1242 4544 c4 -21 22 -23 26 -1 2 10 -3 17 -13 17 -10 0 -15 -6 -13
-16z"/>
<path d="M1868 4553 c-10 -2 -18 -11 -18 -19 0 -8 -13 -17 -30 -20 -29 -6 -40
-27 -20 -39 10 -6 20 0 71 47 39 37 39 42 -3 31z"/>
<path d="M4315 4511 c-6 -11 9 -23 19 -14 9 9 7 23 -3 23 -6 0 -12 -4 -16 -9z"/>
<path d="M4667 4514 c-14 -15 -6 -34 14 -34 14 0 19 5 17 17 -3 18 -20 27 -31
17z"/>
<path d="M1766 4465 c-3 -9 0 -15 9 -15 8 0 15 7 15 15 0 8 -4 15 -9 15 -5 0
-11 -7 -15 -15z"/>
<path d="M1204 4425 c-9 -23 14 -45 26 -25 5 8 8 19 7 24 -6 17 -27 18 -33 1z"/>
<path d="M1630 4415 c0 -8 5 -15 10 -15 6 0 10 7 10 15 0 8 -4 15 -10 15 -5 0
-10 -7 -10 -15z"/>
<path d="M3555 4420 c-3 -5 -3 -15 1 -21 6 -11 23 6 24 24 0 10 -18 9 -25 -3z"/>
<path d="M4450 4421 c0 -5 5 -13 10 -16 6 -3 10 -2 10 4 0 5 -4 13 -10 16 -5
3 -10 2 -10 -4z"/>
<path d="M1720 4409 c0 -5 5 -7 10 -4 6 3 10 8 10 11 0 2 -4 4 -10 4 -5 0 -10
-5 -10 -11z"/>
<path d="M3768 4373 c7 -3 16 -2 19 1 4 3 -2 6 -13 5 -11 0 -14 -3 -6 -6z"/>
<path d="M1160 4315 c0 -19 4 -35 9 -35 11 0 24 48 16 60 -13 21 -25 8 -25
-25z"/>
<path d="M1670 4329 c0 -24 23 -21 28 4 2 10 -3 17 -12 17 -10 0 -16 -9 -16
-21z"/>
<path d="M1550 4310 c0 -16 5 -30 10 -30 6 0 10 14 10 30 0 17 -4 30 -10 30
-5 0 -10 -13 -10 -30z"/>
<path d="M3510 4325 c0 -8 5 -15 10 -15 6 0 10 7 10 15 0 8 -4 15 -10 15 -5 0
-10 -7 -10 -15z"/>
<path d="M3840 4325 c0 -10 7 -15 18 -13 21 4 19 22 -2 26 -10 2 -16 -3 -16
-13z"/>
<path d="M1623 4288 c2 -7 10 -13 17 -13 7 0 15 6 18 13 2 7 -5 12 -18 12 -13
0 -20 -5 -17 -12z"/>
<path d="M1114 4256 c-3 -7 -4 -38 -2 -67 3 -48 6 -54 26 -57 23 -4 52 13 52
29 0 5 -6 9 -14 9 -17 0 -26 22 -26 66 0 24 -5 34 -15 34 -9 0 -18 -6 -21 -14z"/>
<path d="M1580 4225 c0 -28 4 -35 20 -35 20 0 26 22 14 54 -12 30 -34 18 -34
-19z"/>
<path d="M1238 4223 c-20 -5 -22 -20 -8 -57 9 -24 14 -26 68 -26 53 0 60 -2
70 -25 7 -15 20 -25 33 -25 18 0 20 4 13 28 -4 15 -7 42 -6 60 2 26 -3 34 -24
42 -25 10 -114 12 -146 3z"/>
<path d="M1941 4204 c0 -11 3 -14 6 -6 3 7 2 16 -1 19 -3 4 -6 -2 -5 -13z"/>
<path d="M4360 4200 c0 -13 5 -20 13 -17 6 2 12 10 12 17 0 7 -6 15 -12 18 -8
2 -13 -5 -13 -18z"/>
<path d="M3640 4200 c0 -5 5 -10 10 -10 6 0 10 5 10 10 0 6 -4 10 -10 10 -5 0
-10 -4 -10 -10z"/>
<path d="M1460 4166 c0 -8 5 -18 10 -21 6 -3 10 3 10 14 0 12 -4 21 -10 21 -5
0 -10 -6 -10 -14z"/>
<path d="M1546 4171 c-8 -12 3 -41 15 -41 5 0 9 11 9 25 0 25 -14 34 -24 16z"/>
<path d="M1970 4147 c0 -29 4 -36 23 -39 12 -2 22 -10 23 -18 2 -35 5 -41 14
-35 16 10 11 41 -9 59 -11 10 -21 27 -23 39 -5 37 -28 32 -28 -6z"/>
<path d="M4323 4172 c-7 -4 -10 -17 -6 -30 4 -18 8 -20 19 -11 15 12 19 49 7
49 -5 0 -13 -4 -20 -8z"/>
<path d="M3750 4160 c0 -5 7 -10 15 -10 8 0 15 5 15 10 0 6 -7 10 -15 10 -8 0
-15 -4 -15 -10z"/>
<path d="M3855 4120 c-3 -5 -1 -10 4 -10 6 0 11 5 11 10 0 6 -2 10 -4 10 -3 0
-8 -4 -11 -10z"/>
<path d="M4282 4095 c-15 -33 -15 -35 3 -35 10 0 15 10 15 30 0 37 -3 37 -18
5z"/>
<path d="M8670 4074 c0 -22 4 -33 11 -29 6 4 8 13 5 21 -3 8 -1 14 3 14 5 0
11 7 15 15 4 10 -1 15 -14 15 -16 0 -20 -7 -20 -36z"/>
<path d="M4132 4073 c2 -10 13 -19 25 -21 39 -6 45 -78 8 -92 -20 -8 -25 -15
-22 -37 5 -35 24 -41 37 -11 24 59 82 90 97 52 15 -41 89 -89 113 -74 15 9 5
30 -15 30 -8 0 -19 9 -25 20 -6 11 -19 20 -29 20 -23 0 -48 27 -56 63 -6 24
-12 27 -46 27 -32 0 -39 3 -39 20 0 15 -7 20 -26 20 -19 0 -25 -5 -22 -17z"/>
<path d="M1506 4064 c-10 -26 -7 -44 9 -44 10 0 14 9 12 30 -2 33 -11 39 -21
14z"/>
<path d="M1467 3993 c-4 -3 -7 -28 -7 -55 0 -36 4 -48 15 -48 13 0 15 9 9 53
-8 58 -8 60 -17 50z"/>
<path d="M1082 3927 c-10 -11 -11 -21 -3 -34 9 -17 10 -17 16 -1 4 9 5 25 3
34 -3 16 -4 16 -16 1z"/>
<path d="M4102 3864 c4 -21 22 -23 26 -1 2 10 -3 17 -13 17 -10 0 -15 -6 -13
-16z"/>
<path d="M1302 3845 c0 -16 2 -22 5 -12 2 9 2 23 0 30 -3 6 -5 -1 -5 -18z"/>
<path d="M1547 3826 c-6 -15 1 -26 15 -26 11 0 10 27 -1 34 -5 3 -11 0 -14 -8z"/>
<path d="M4073 3833 c-7 -3 -13 -13 -13 -24 0 -10 -6 -19 -14 -19 -8 0 -19
-14 -25 -31 -6 -17 -21 -39 -33 -49 -18 -15 -20 -21 -11 -31 10 -10 14 -7 22
14 6 15 17 27 26 27 8 0 17 11 21 25 3 14 12 25 18 25 16 0 36 43 28 57 -4 5
-13 8 -19 6z"/>
<path d="M1420 3769 c0 -11 5 -17 10 -14 6 3 10 13 10 21 0 8 -4 14 -10 14 -5
0 -10 -9 -10 -21z"/>
<path d="M1580 3776 c0 -22 11 -46 21 -46 5 0 9 14 9 30 0 20 -5 30 -15 30 -8
0 -15 -6 -15 -14z"/>
<path d="M8675 3681 c3 -5 1 -12 -5 -16 -15 -10 -12 -35 5 -35 10 0 15 10 15
30 0 17 -5 30 -11 30 -5 0 -8 -4 -4 -9z"/>
<path d="M3365 3659 c-4 -5 -2 -23 5 -39 13 -32 74 -60 92 -42 14 14 6 43 -17
56 -10 6 -25 17 -33 24 -16 15 -39 16 -47 1z"/>
<path d="M1202 3623 c4 -52 28 -56 28 -4 0 30 -4 41 -16 41 -11 0 -14 -9 -12
-37z"/>
<path d="M1635 3650 c-3 -5 -1 -10 4 -10 6 0 11 5 11 10 0 6 -2 10 -4 10 -3 0
-8 -4 -11 -10z"/>
<path d="M3930 3635 c0 -17 -4 -23 -15 -19 -10 4 -18 -3 -24 -19 -5 -14 -16
-27 -23 -30 -10 -3 -8 -9 7 -20 26 -20 41 -12 49 23 3 17 15 38 26 47 26 22
26 43 0 43 -15 0 -20 -7 -20 -25z"/>
<path d="M1670 3605 c0 -8 7 -15 15 -15 8 0 15 7 15 15 0 8 -7 15 -15 15 -8 0
-15 -7 -15 -15z"/>
<path d="M1125 3560 c3 -5 8 -10 11 -10 2 0 4 5 4 10 0 6 -5 10 -11 10 -5 0
-7 -4 -4 -10z"/>
<path d="M7904 3538 c-9 -14 -8 -133 1 -148 15 -25 25 7 25 81 0 73 -9 96 -26
67z"/>
<path d="M1160 3475 c0 -30 5 -55 10 -55 6 0 10 25 10 55 0 30 -4 55 -10 55
-5 0 -10 -25 -10 -55z"/>
<path d="M3812 3518 c-7 -7 -12 -18 -12 -25 0 -7 -12 -23 -27 -37 -24 -23 -26
-27 -14 -53 12 -26 13 -27 23 -8 6 11 21 29 34 40 29 25 40 67 21 83 -10 9
-16 9 -25 0z"/>
<path d="M3590 3455 c0 -23 5 -35 13 -35 8 0 22 -9 32 -20 22 -25 35 -17 35
21 0 22 -6 32 -25 39 -14 5 -25 14 -25 20 0 5 -7 10 -15 10 -10 0 -15 -11 -15
-35z"/>
<path d="M7436 3403 c-10 -11 -7 -123 4 -123 17 0 31 50 24 86 -6 35 -16 48
-28 37z"/>
<path d="M1846 3361 c-4 -5 -2 -12 3 -15 5 -4 12 -2 15 3 4 5 2 12 -3 15 -5 4
-12 2 -15 -3z"/>
<path d="M1378 3355 c-8 -8 3 -55 13 -55 5 0 9 8 9 18 0 20 -14 44 -22 37z"/>
<path d="M3725 3350 c3 -5 8 -10 11 -10 2 0 4 5 4 10 0 6 -5 10 -11 10 -5 0
-7 -4 -4 -10z"/>
<path d="M1885 3320 c-10 -17 12 -37 25 -24 8 8 6 15 -4 23 -10 9 -16 9 -21 1z"/>
<path d="M8242 3270 c-9 -41 -18 -60 -28 -60 -8 0 -20 -11 -26 -25 -7 -16 -19
-25 -35 -25 -12 0 -32 -9 -43 -20 -11 -11 -32 -22 -47 -26 -16 -3 -33 -13 -39
-21 -7 -7 -30 -17 -53 -21 -23 -4 -41 -11 -41 -16 5 -29 -65 -34 -80 -6 -14
27 -27 25 -34 -5 -4 -14 -11 -25 -16 -25 -14 0 -12 -24 6 -70 20 -48 30 -51
39 -7 9 37 20 47 58 47 15 0 30 6 33 14 3 8 24 18 46 21 27 5 42 13 45 25 3
11 19 22 41 27 22 5 37 15 37 23 0 11 14 16 48 18 41 3 53 8 83 41 19 22 46
42 59 45 14 4 25 13 25 20 0 8 9 16 20 19 24 6 27 37 4 37 -9 0 -18 -9 -21
-21 -4 -14 -12 -19 -27 -17 -17 2 -22 11 -24 46 -2 23 -6 42 -11 42 -4 0 -13
-27 -19 -60z"/>
<path d="M8377 3314 c-11 -11 3 -24 18 -18 8 4 12 10 9 15 -6 11 -18 12 -27 3z"/>
<path d="M1924 3269 c-8 -14 18 -31 30 -19 9 9 0 30 -14 30 -5 0 -12 -5 -16
-11z"/>
<path d="M1420 3240 c0 -18 5 -30 13 -30 22 0 25 9 13 35 -15 34 -26 31 -26
-5z"/>
<path d="M1668 3205 c-2 -21 1 -36 8 -39 18 -7 24 4 24 41 0 46 -26 44 -32 -2z"/>
<path d="M3640 3224 c0 -8 5 -12 10 -9 6 4 8 11 5 16 -9 14 -15 11 -15 -7z"/>
<path d="M7868 3234 c-5 -4 -8 -32 -8 -63 0 -54 0 -55 16 -32 13 18 15 32 8
63 -5 22 -12 36 -16 32z"/>
<path d="M1160 3196 c0 -20 5 -36 10 -36 6 0 10 13 10 29 0 17 -4 33 -10 36
-6 4 -10 -8 -10 -29z"/>
<path d="M1970 3220 c0 -5 5 -10 10 -10 6 0 10 5 10 10 0 6 -4 10 -10 10 -5 0
-10 -4 -10 -10z"/>
<path d="M7390 3194 c-19 -48 -7 -115 17 -101 13 8 25 91 17 112 -9 23 -23 18
-34 -11z"/>
<path d="M8512 3190 c0 -14 2 -19 5 -12 2 6 2 18 0 25 -3 6 -5 1 -5 -13z"/>
<path d="M3587 3158 c-7 -26 -1 -38 19 -38 9 0 14 11 14 30 0 35 -25 41 -33 8z"/>
<path d="M1624 3145 c-9 -23 5 -65 21 -65 11 0 15 11 15 40 0 29 -4 40 -15 40
-9 0 -18 -7 -21 -15z"/>
<path d="M2017 3154 c-8 -8 3 -34 14 -34 11 0 12 27 0 34 -4 3 -11 3 -14 0z"/>
<path d="M2060 3095 c0 -8 5 -15 10 -15 6 0 10 7 10 15 0 8 -4 15 -10 15 -5 0
-10 -7 -10 -15z"/>
<path d="M8210 3078 c-10 -61 -10 -77 -1 -83 7 -4 11 10 11 39 0 25 -2 46 -5
46 -3 0 -5 -1 -5 -2z"/>
<path d="M1577 3064 c-4 -4 -4 -23 -1 -42 5 -26 1 -40 -15 -62 -11 -16 -21
-36 -21 -44 0 -8 -7 -19 -16 -24 -22 -12 -9 -32 22 -32 22 0 24 4 24 44 0 39
3 45 23 48 20 3 22 9 22 58 0 41 -4 55 -15 58 -9 1 -19 -1 -23 -4z"/>
<path d="M2100 3050 c0 -11 7 -20 15 -20 8 0 15 9 15 20 0 11 -7 20 -15 20 -8
0 -15 -9 -15 -20z"/>
<path d="M2140 3011 c0 -12 6 -21 16 -21 9 0 14 7 12 17 -5 25 -28 28 -28 4z"/>
<path d="M3932 3000 c-6 -11 -12 -22 -12 -24 0 -2 40 -34 90 -70 103 -76 131
-82 167 -35 10 12 9 20 -3 37 -12 18 -18 20 -38 10 -21 -9 -33 -4 -100 46 -42
31 -79 56 -83 56 -5 0 -14 -9 -21 -20z"/>
<path d="M2183 2974 c-8 -21 13 -42 28 -27 13 13 5 43 -11 43 -6 0 -13 -7 -17
-16z"/>
<path d="M3897 2846 c-66 -89 -64 -111 11 -164 47 -33 64 -40 85 -34 31 8 121
126 113 148 -10 25 -38 29 -55 7 -9 -12 -29 -37 -44 -57 l-28 -36 -30 20 c-16
12 -29 27 -29 34 0 7 16 34 35 59 19 25 35 50 35 56 0 9 -31 31 -42 31 -2 0
-25 -29 -51 -64z"/>
<path d="M8420 2886 c0 -9 5 -16 10 -16 6 0 10 4 10 9 0 6 -4 13 -10 16 -5 3
-10 -1 -10 -9z"/>
<path d="M7776 2874 c-9 -24 -7 -107 4 -124 9 -15 8 -17 25 37 7 21 -5 103
-15 103 -4 0 -11 -7 -14 -16z"/>
<path d="M1506 2823 c-9 -10 -7 -123 2 -123 16 0 29 45 24 83 -4 37 -14 52
-26 40z"/>
<path d="M2395 2761 c-8 -15 3 -31 21 -31 9 0 14 7 12 17 -4 20 -24 28 -33 14z"/>
<path d="M7259 2728 c-4 -59 -4 -110 1 -113 16 -10 29 16 32 65 2 45 0 55 -14
58 -10 2 -18 -2 -19 -10z"/>
<path d="M2435 2720 c-7 -12 2 -30 16 -30 5 0 9 9 9 20 0 21 -15 27 -25 10z"/>
<path d="M8120 2710 c0 -5 5 -10 10 -10 6 0 10 5 10 10 0 6 -4 10 -10 10 -5 0
-10 -4 -10 -10z"/>
<path d="M1846 2684 c-9 -22 -8 -24 9 -24 8 0 15 6 15 14 0 22 -17 28 -24 10z"/>
<path d="M7730 2666 c0 -17 5 -26 16 -26 10 0 14 7 12 22 -5 32 -28 35 -28 4z"/>
<path d="M2482 2668 c6 -18 28 -21 28 -4 0 9 -7 16 -16 16 -9 0 -14 -5 -12
-12z"/>
<path d="M1497 2633 c-13 -12 -7 -23 13 -23 11 0 20 7 20 15 0 15 -21 21 -33
8z"/>
<path d="M1880 2625 c0 -8 7 -15 15 -15 8 0 15 7 15 15 0 8 -7 15 -15 15 -8 0
-15 -7 -15 -15z"/>
<path d="M2520 2625 c0 -8 7 -15 15 -15 8 0 15 7 15 15 0 8 -7 15 -15 15 -8 0
-15 -7 -15 -15z"/>
<path d="M8156 2625 c-3 -9 0 -15 9 -15 8 0 15 7 15 15 0 8 -4 15 -9 15 -5 0
-11 -7 -15 -15z"/>
<path d="M7218 2593 c-6 -30 4 -74 16 -70 6 2 12 22 14 45 2 32 0 42 -12 42
-8 0 -16 -8 -18 -17z"/>
<path d="M8077 2603 c-4 -3 -7 -15 -7 -25 0 -13 8 -18 29 -18 31 0 49 16 35
30 -14 12 -50 21 -57 13z"/>
<path d="M2565 2590 c-8 -14 3 -30 21 -30 8 0 14 9 14 20 0 21 -24 28 -35 10z"/>
<path d="M1932 2581 c4 -13 18 -16 19 -4 0 4 -5 9 -11 12 -7 2 -11 -2 -8 -8z"/>
<path d="M2610 2546 c0 -21 20 -30 33 -17 9 9 8 14 -3 21 -21 14 -30 12 -30
-4z"/>
<path d="M7690 2536 c0 -14 4 -27 9 -31 12 -7 25 31 16 45 -11 18 -25 10 -25
-14z"/>
<path d="M8030 2535 c0 -8 7 -15 15 -15 8 0 15 7 15 15 0 8 -7 15 -15 15 -8 0
-15 -7 -15 -15z"/>
<path d="M7983 2498 c2 -7 10 -13 17 -13 7 0 15 6 18 13 2 7 -5 12 -18 12 -13
0 -20 -5 -17 -12z"/>
<path d="M7177 2484 c-10 -10 -9 -56 2 -72 6 -10 10 -10 20 2 23 27 2 93 -22
70z"/>
<path d="M7890 2450 c0 -5 6 -10 14 -10 8 0 18 5 21 10 3 6 -3 10 -14 10 -12
0 -21 -4 -21 -10z"/>
<path d="M7646 2428 c-3 -16 -8 -39 -11 -53 -4 -18 -12 -25 -28 -25 -13 0 -32
-6 -43 -14 -23 -18 -12 -33 32 -42 28 -5 32 -3 42 24 10 29 14 31 69 34 50 3
58 6 58 23 0 16 6 20 30 17 38 -3 64 13 48 29 -14 14 -69 3 -77 -17 -3 -9 -20
-14 -44 -14 -33 0 -40 4 -54 33 l-16 32 -6 -27z"/>
<path d="M6256 2379 c-15 -9 -16 -13 -5 -20 20 -12 67 -11 75 2 14 24 -36 37
-70 18z"/>
<path d="M7137 2384 c-11 -12 -8 -72 4 -80 16 -10 30 16 27 50 -3 29 -18 43
-31 30z"/>
<path d="M2145 2370 c-3 -5 1 -10 10 -10 9 0 13 5 10 10 -3 6 -8 10 -10 10 -2
0 -7 -4 -10 -10z"/>
<path d="M2190 2319 c0 -5 5 -7 10 -4 6 3 10 8 10 11 0 2 -4 4 -10 4 -5 0 -10
-5 -10 -11z"/>
<path d="M7398 2289 c-32 -18 -19 -29 33 -29 53 0 94 15 84 31 -8 12 -95 11
-117 -2z"/>
<path d="M2230 2280 c0 -5 5 -10 10 -10 6 0 10 5 10 10 0 6 -4 10 -10 10 -5 0
-10 -4 -10 -10z"/>
<path d="M7238 2262 c-71 -3 -78 -5 -78 -23 0 -20 5 -21 100 -17 54 1 104 8
110 14 17 17 -45 29 -132 26z"/>
<path d="M2272 2246 c1 -10 8 -17 13 -17 15 1 12 24 -3 29 -9 3 -13 -2 -10
-12z"/>
<path d="M2312 2198 c6 -18 28 -21 28 -4 0 9 -7 16 -16 16 -9 0 -14 -5 -12
-12z"/>
<path d="M2360 2154 c0 -8 5 -12 10 -9 6 4 8 11 5 16 -9 14 -15 11 -15 -7z"/>
<path d="M2395 2121 c-7 -12 12 -24 25 -16 11 7 4 25 -10 25 -5 0 -11 -4 -15
-9z"/>
<path d="M7520 2115 c0 -8 5 -15 10 -15 6 0 10 7 10 15 0 8 -4 15 -10 15 -5 0
-10 -7 -10 -15z"/>
<path d="M2520 2031 c0 -6 5 -13 10 -16 6 -3 10 1 10 9 0 9 -4 16 -10 16 -5 0
-10 -4 -10 -9z"/>
<path d="M6958 1993 c-6 -24 1 -43 17 -43 13 0 25 21 25 46 0 20 -37 17 -42
-3z"/>
<path d="M2567 1994 c-13 -13 -7 -24 14 -24 11 0 19 5 17 12 -5 14 -22 21 -31
12z"/>
<path d="M6920 1894 c0 -31 23 -28 28 4 2 15 -2 22 -12 22 -11 0 -16 -9 -16
-26z"/>
<path d="M7390 1895 c0 -8 7 -15 15 -15 8 0 15 7 15 15 0 8 -7 15 -15 15 -8 0
-15 -7 -15 -15z"/>
<path d="M4941 1871 c-12 -8 -12 -12 -2 -25 14 -17 115 -23 125 -8 17 28 -89
57 -123 33z"/>
<path d="M2732 1858 c6 -18 28 -21 28 -4 0 9 -7 16 -16 16 -9 0 -14 -5 -12
-12z"/>
<path d="M7520 1855 c0 -8 5 -15 10 -15 6 0 10 7 10 15 0 8 -4 15 -10 15 -5 0
-10 -7 -10 -15z"/>
<path d="M7352 1839 c-7 -10 -12 -25 -12 -33 0 -7 -9 -16 -20 -19 -11 -3 -20
-12 -20 -21 0 -20 29 -21 36 -1 3 8 14 17 24 20 25 8 33 33 17 55 -13 18 -13
18 -25 -1z"/>
<path d="M2780 1816 c0 -10 9 -16 21 -16 24 0 21 23 -4 28 -10 2 -17 -3 -17
-12z"/>
<path d="M5060 1820 c0 -17 38 -30 89 -30 37 0 51 -4 51 -14 0 -19 22 -26 87
-26 46 0 54 3 51 18 -3 14 -16 18 -71 20 -48 2 -67 7 -67 16 0 8 -7 17 -16 20
-25 10 -124 7 -124 -4z"/>
<path d="M7420 1810 c0 -5 9 -10 20 -10 11 0 20 5 20 10 0 6 -9 10 -20 10 -11
0 -20 -4 -20 -10z"/>
<path d="M2910 1724 c0 -9 5 -14 12 -12 18 6 21 28 4 28 -9 0 -16 -7 -16 -16z"/>
<path d="M3032 1643 c2 -10 10 -18 18 -18 8 0 16 8 18 18 2 12 -3 17 -18 17
-15 0 -20 -5 -18 -17z"/>
<path d="M4040 1601 c0 -20 22 -30 53 -23 30 8 15 37 -21 40 -26 3 -32 0 -32
-17z"/>
<path d="M3105 1600 c-4 -6 5 -10 20 -10 15 0 24 4 20 10 -3 6 -12 10 -20 10
-8 0 -17 -4 -20 -10z"/>
<path d="M4135 1570 c-11 -19 6 -30 46 -30 48 0 54 24 8 34 -42 8 -47 8 -54
-4z"/>
<path d="M3160 1561 c0 -6 4 -12 9 -15 13 -8 42 4 35 15 -7 12 -44 12 -44 0z"/>
<path d="M4444 1439 c-9 -15 15 -29 52 -29 36 0 45 6 37 26 -6 17 -79 19 -89
3z"/>
<path d="M3380 1430 c0 -5 11 -10 25 -10 14 0 25 5 25 10 0 6 -11 10 -25 10
-14 0 -25 -4 -25 -10z"/>
<path d="M4575 1400 c-12 -20 7 -30 61 -30 39 0 54 4 54 14 0 22 -102 36 -115
16z"/>
<path d="M3460 1391 c0 -6 4 -12 10 -16 13 -8 61 5 54 16 -7 12 -64 12 -64 0z"/>
<path d="M3578 1352 c-29 -6 -20 -22 12 -22 17 0 30 4 30 9 0 12 -21 18 -42
13z"/>
<path d="M4700 1346 c0 -22 82 -34 110 -16 13 9 13 11 0 20 -24 15 -110 13
-110 -4z"/>
<path d="M4832 1308 c2 -6 28 -17 56 -23 42 -10 54 -10 63 1 19 23 -1 34 -62
34 -43 0 -59 -4 -57 -12z"/>
<path d="M3745 1260 c-4 -6 5 -10 19 -10 14 0 26 5 26 10 0 6 -9 10 -19 10
-11 0 -23 -4 -26 -10z"/>
<path d="M5267 1232 c-24 -2 -37 -8 -34 -15 4 -13 138 -23 165 -12 41 16 -48
34 -131 27z"/>
<path d="M3812 1218 c3 -7 19 -14 37 -16 24 -3 32 0 29 10 -3 7 -19 14 -37 16
-24 3 -32 0 -29 -10z"/>
<path d="M4150 1090 c0 -5 16 -10 36 -10 21 0 33 4 29 10 -3 6 -19 10 -36 10
-16 0 -29 -4 -29 -10z"/>
<path d="M4310 1044 c0 -9 7 -14 17 -12 25 5 28 28 4 28 -12 0 -21 -6 -21 -16z"/>
<path d="M4428 997 c24 -7 36 -7 44 1 9 9 1 12 -32 11 l-45 -1 33 -11z"/>
<path d="M3707 973 c-4 -3 -7 -13 -7 -20 0 -22 84 -13 88 10 3 14 -4 17 -36
17 -21 0 -42 -3 -45 -7z"/>
<path d="M4590 959 c0 -5 5 -7 10 -4 6 3 10 8 10 11 0 2 -4 4 -10 4 -5 0 -10
-5 -10 -11z"/>
<path d="M3633 918 c2 -7 10 -13 17 -13 7 0 15 6 18 13 2 7 -5 12 -18 12 -13
0 -20 -5 -17 -12z"/>
<path d="M5138 883 c-35 -9 -17 -24 25 -21 23 2 41 8 40 13 -3 11 -39 16 -65
8z"/>
<path d="M4517 836 c-7 -17 22 -30 47 -20 9 3 16 12 16 20 0 19 -56 18 -63 0z"/>
<path d="M4442 789 c2 -6 8 -10 13 -10 5 0 11 4 13 10 2 6 -4 11 -13 11 -9 0
-15 -5 -13 -11z"/>
<path d="M5260 790 c0 -5 7 -10 15 -10 8 0 15 5 15 10 0 6 -7 10 -15 10 -8 0
-15 -4 -15 -10z"/>
<path d="M5075 711 c-8 -14 10 -22 30 -15 13 5 14 8 3 15 -17 11 -26 11 -33 0z"/>
</g>
</svg>
