<?xml version="1.0" standalone="no"?>
<!DOCTYPE svg PUBLIC "-//W3C//DTD SVG 20010904//EN"
 "http://www.w3.org/TR/2001/REC-SVG-20010904/DTD/svg10.dtd">
<svg version="1.0" xmlns="http://www.w3.org/2000/svg"
 width="1280.000000pt" height="1280.000000pt" viewBox="0 0 1280.000000 1280.000000"
 preserveAspectRatio="xMidYMid meet">
<metadata>
Created by potrace 1.11, written by Peter Selinger 2001-2013
</metadata>
<g transform="translate(0.000000,1280.000000) scale(0.100000,-0.100000)"
fill="#000000" stroke="none">
<path d="M6298 11735 c-2 -2 -23 -5 -47 -9 -24 -3 -51 -11 -59 -18 -10 -9 -55
-13 -144 -13 -70 0 -128 -3 -128 -8 0 -4 -60 -7 -132 -6 -143 1 -164 -3 -189
-34 -18 -22 -76 -34 -214 -42 -61 -4 -94 -11 -101 -21 -12 -14 -157 -32 -262
-32 -37 0 -57 -5 -65 -15 -7 -9 -31 -17 -57 -19 -40 -3 -45 -5 -42 -25 2 -17
-3 -24 -22 -29 -14 -3 -32 -4 -40 -1 -8 3 -20 0 -26 -8 -6 -8 -23 -15 -37 -17
-17 -2 -27 -10 -29 -22 -4 -30 -19 -38 -70 -38 -64 0 -88 -12 -74 -39 10 -18
8 -20 -24 -17 -46 3 -63 -13 -60 -57 3 -29 0 -35 -16 -35 -30 0 -100 -33 -100
-47 0 -7 -8 -13 -17 -13 -10 0 -31 -7 -47 -15 -15 -8 -39 -15 -52 -15 -23 0
-28 8 -25 40 1 12 -8 14 -44 12 -36 -3 -45 -8 -45 -23 0 -14 -7 -19 -26 -19
-14 0 -23 -4 -20 -9 8 -13 -14 -26 -49 -29 -38 -4 -85 -22 -85 -33 0 -14 -82
-57 -132 -69 -28 -7 -56 -23 -71 -40 -16 -18 -40 -30 -67 -35 -27 -5 -46 -15
-56 -31 -15 -23 -43 -37 -74 -38 -8 -1 -21 -16 -29 -33 -8 -18 -19 -33 -25
-33 -15 0 -87 -70 -113 -110 -17 -26 -23 -30 -23 -16 0 18 -1 18 -20 1 -13
-12 -18 -25 -14 -40 3 -13 -1 -27 -11 -35 -10 -8 -21 -24 -26 -37 -10 -26
-128 -87 -152 -77 -8 3 -18 0 -22 -5 -3 -6 -11 -9 -16 -6 -5 4 -9 -1 -9 -9 0
-9 6 -16 13 -16 6 0 -6 -12 -28 -26 -29 -17 -53 -24 -85 -23 -69 1 -82 0 -75
-11 3 -5 -5 -19 -17 -30 -13 -12 -36 -34 -53 -50 -16 -16 -42 -31 -57 -34 -26
-4 -71 -25 -56 -26 4 0 3 -12 -3 -27 -6 -16 -11 -53 -11 -84 l1 -56 -60 1
c-47 1 -63 -3 -73 -16 -7 -10 -16 -15 -19 -11 -4 3 -7 1 -7 -5 0 -7 -3 -11 -7
-11 -24 4 -34 -5 -48 -37 -8 -20 -24 -38 -35 -41 -24 -6 -33 -33 -21 -65 6
-16 5 -31 -5 -48 -7 -14 -13 -37 -14 -52 0 -29 -28 -52 -48 -39 -7 4 -15 21
-18 37 -7 39 -8 39 -40 9 -31 -29 -34 -67 -11 -132 9 -28 8 -36 -9 -55 -19
-22 -36 -54 -48 -91 -3 -10 -10 -16 -15 -13 -5 4 -18 -5 -28 -18 -20 -25 -72
-36 -106 -21 -20 8 -56 -25 -82 -75 -15 -29 -68 -75 -86 -75 -10 0 -29 -24
-29 -37 0 -5 7 -8 16 -8 11 0 14 -5 10 -16 -3 -9 -6 -22 -6 -29 0 -7 -14 -18
-32 -24 -17 -6 -28 -14 -25 -17 3 -4 2 -16 -4 -27 -6 -10 -11 -35 -11 -53 0
-39 -35 -74 -74 -74 -21 0 -24 -5 -24 -39 0 -29 -5 -40 -18 -43 -11 -3 -22
-23 -31 -59 -7 -30 -20 -65 -27 -79 -7 -14 -18 -44 -24 -67 -8 -33 -17 -44
-35 -49 -19 -5 -25 -13 -25 -34 0 -15 6 -33 14 -39 7 -6 16 -34 20 -61 7 -55
-7 -90 -36 -90 -14 0 -18 9 -19 38 -1 20 -1 43 0 50 2 13 -17 16 -43 6 -9 -3
-13 -10 -10 -16 3 -5 -2 -8 -12 -6 -13 2 -22 -6 -29 -28 -5 -17 -15 -37 -21
-45 -18 -22 -24 -87 -9 -99 7 -6 15 -24 17 -40 4 -25 0 -31 -24 -39 -34 -12
-39 -50 -8 -58 30 -8 24 -30 -9 -36 -20 -4 -28 -12 -27 -24 1 -13 -6 -18 -26
-17 -16 1 -28 -4 -28 -10 -2 -44 -22 -165 -35 -204 -9 -25 -16 -62 -15 -82 3
-55 1 -60 -19 -60 -27 0 -43 -24 -46 -72 -3 -48 -14 -98 -25 -113 -4 -5 -11
-64 -15 -130 -4 -66 -11 -125 -17 -132 -5 -7 -7 -17 -4 -22 4 -5 -1 -14 -10
-19 -18 -10 -30 -78 -20 -117 4 -15 17 -30 32 -35 19 -8 24 -15 19 -28 -4 -9
-9 -43 -12 -74 -4 -44 -10 -59 -24 -63 -10 -3 -21 -15 -24 -26 -4 -11 -18 -25
-31 -31 -17 -8 -24 -19 -24 -40 0 -21 -7 -32 -25 -40 -29 -13 -33 -46 -10 -82
13 -19 13 -26 3 -38 -27 -29 -32 -107 -7 -134 22 -23 29 -138 10 -157 -6 -6
-11 -19 -11 -29 0 -10 -7 -21 -15 -24 -14 -6 -15 -18 -6 -195 1 -31 57 -95 78
-91 9 2 13 -2 10 -10 -2 -7 -11 -12 -18 -10 -9 1 -8 -3 4 -11 10 -9 17 -28 17
-50 0 -34 29 -77 53 -77 5 0 6 -17 3 -37 -3 -21 0 -62 6 -91 11 -49 10 -54
-11 -73 -18 -17 -25 -19 -38 -8 -22 19 -46 -16 -39 -55 3 -16 6 -39 6 -52 0
-15 6 -24 15 -24 10 0 15 -11 16 -32 2 -60 -3 -93 -15 -100 -8 -6 -8 -13 2
-28 6 -11 12 -44 12 -73 0 -30 9 -80 19 -113 10 -32 22 -104 25 -159 8 -126
13 -144 49 -176 l29 -26 -4 -96 -5 -97 27 0 c23 0 29 -6 35 -32 5 -18 9 -41 9
-51 1 -19 34 -50 45 -42 4 2 8 -33 9 -78 2 -71 6 -85 27 -107 14 -14 28 -40
31 -58 4 -18 12 -32 20 -32 14 0 19 -13 28 -75 12 -77 30 -137 43 -142 7 -3
13 -16 13 -28 0 -13 5 -36 12 -52 6 -15 10 -34 9 -42 -4 -23 9 -61 21 -61 15
0 37 31 38 53 0 20 15 23 27 4 11 -17 11 -57 -1 -57 -5 0 -7 -3 -4 -6 4 -3 2
-19 -2 -35 -9 -30 -8 -30 21 -24 18 4 36 2 44 -5 19 -16 10 -30 -21 -30 -20 0
-24 -5 -24 -30 0 -16 4 -30 8 -30 11 0 48 -75 57 -113 3 -16 28 -51 55 -77 28
-27 50 -58 50 -68 0 -10 13 -28 28 -39 16 -12 33 -38 40 -62 7 -22 19 -41 26
-41 13 0 26 -20 26 -40 0 -5 -7 -16 -16 -24 -14 -15 -14 -16 0 -16 9 0 16 -4
16 -10 0 -5 7 -10 15 -10 18 0 35 -39 35 -80 0 -23 3 -27 20 -23 16 4 20 0 20
-18 0 -33 10 -46 44 -59 26 -10 28 -13 22 -50 -3 -22 -2 -41 4 -45 5 -3 10 -1
10 4 0 6 9 11 20 11 11 0 20 -7 20 -15 0 -18 30 -55 45 -55 6 0 16 -9 23 -20
7 -11 21 -20 32 -20 13 0 20 -7 20 -19 0 -20 53 -82 86 -99 11 -6 30 -30 42
-54 13 -24 38 -54 57 -67 19 -13 35 -29 35 -35 0 -24 25 -66 43 -72 9 -3 17
-10 17 -16 0 -18 70 -98 86 -98 8 0 14 -5 14 -11 0 -5 4 -8 9 -5 5 3 11 -1 15
-9 3 -8 17 -20 31 -27 14 -6 25 -17 25 -24 0 -16 31 -34 59 -34 14 0 21 -6 21
-19 0 -10 7 -21 15 -25 8 -3 20 -16 26 -29 7 -15 26 -28 54 -36 27 -8 47 -20
50 -32 4 -11 16 -19 29 -19 27 0 46 -18 46 -42 0 -10 4 -18 9 -18 6 0 22 -11
37 -25 15 -14 33 -25 40 -25 8 0 14 -10 14 -22 0 -28 10 -42 33 -51 9 -4 20
-15 24 -24 10 -27 23 -33 76 -33 39 0 47 -3 47 -19 0 -12 11 -23 30 -30 16 -5
30 -17 30 -25 0 -10 14 -17 38 -21 65 -11 72 -15 72 -41 0 -20 5 -24 30 -24
23 0 30 -4 30 -20 0 -18 11 -25 33 -21 9 1 57 -48 57 -59 0 -9 76 -60 89 -60
5 0 27 -18 49 -40 31 -31 47 -40 74 -40 24 0 47 -10 73 -30 25 -20 44 -28 54
-24 9 4 28 9 43 11 23 4 27 1 30 -23 3 -25 8 -29 48 -36 25 -4 46 -12 48 -18
6 -16 20 -12 26 8 4 14 5 14 4 -3 -1 -40 2 -45 28 -45 16 0 45 -15 70 -36 31
-24 50 -33 64 -29 18 6 170 -68 178 -87 2 -4 16 -8 32 -8 22 0 31 -7 42 -30
16 -38 28 -41 139 -44 49 -2 92 -5 95 -9 4 -3 7 -19 7 -34 0 -15 1 -23 3 -18
3 6 36 8 86 5 63 -4 93 -11 123 -29 29 -17 61 -25 118 -29 63 -4 81 -9 92 -25
12 -17 24 -20 74 -18 33 1 74 6 91 11 25 7 35 5 51 -11 10 -10 27 -19 37 -19
9 0 23 -9 29 -20 17 -26 77 -36 122 -20 20 7 38 16 41 21 10 14 153 21 205 9
28 -6 55 -10 60 -10 140 15 195 10 195 -16 0 -10 6 -14 14 -11 7 3 33 1 57 -5
24 -6 65 -10 90 -9 26 1 60 -4 75 -10 92 -38 300 -51 394 -26 19 5 85 10 145
11 61 1 162 8 226 16 104 12 118 12 149 -3 42 -21 52 -21 98 2 52 26 206 69
276 76 56 6 96 22 96 37 0 5 9 8 20 8 11 0 20 -4 20 -10 0 -14 36 -12 52 3 7
7 34 19 60 26 26 7 49 19 52 27 6 17 122 20 174 4 32 -9 34 -8 48 27 13 31 19
35 44 31 16 -3 31 0 33 5 2 6 12 4 24 -4 26 -16 76 2 67 24 -3 9 15 23 58 42
34 16 69 34 76 42 7 7 23 14 35 15 12 0 27 2 32 3 6 2 18 3 27 4 10 0 26 10
36 22 11 11 30 21 43 23 24 3 71 21 99 37 33 19 83 39 100 39 10 0 20 9 23 20
3 14 14 20 31 20 14 0 26 5 26 10 0 6 9 10 19 10 11 0 26 7 34 15 8 8 17 11
21 8 3 -4 6 0 6 7 0 7 3 10 7 7 3 -4 28 9 55 28 26 19 55 35 63 35 8 0 15 5
15 10 0 6 11 10 25 10 14 0 28 7 31 15 4 8 16 15 28 15 22 0 59 34 49 44 -4 3
3 6 15 6 12 0 22 5 22 10 0 6 6 10 13 10 6 0 32 14 57 31 25 17 57 33 72 36
15 3 30 13 33 23 5 16 48 36 68 32 4 -1 7 7 7 18 0 11 6 20 13 20 7 0 24 12
38 27 44 48 109 98 127 98 20 -1 35 13 45 38 4 10 11 16 16 13 5 -3 18 10 30
29 12 21 28 35 40 35 11 0 22 9 26 20 7 22 25 26 43 8 8 -8 15 -8 27 2 13 11
13 15 3 21 -10 7 -10 9 1 9 7 0 25 11 40 25 14 14 45 42 67 61 28 23 40 40 37
52 -4 16 29 62 46 62 4 0 14 11 21 25 7 14 15 23 18 21 6 -7 65 58 92 102 18
30 34 43 57 48 22 4 33 13 37 29 3 13 18 30 33 37 35 17 41 38 13 45 -21 6
-21 6 6 34 15 16 33 29 39 29 7 0 21 11 31 25 10 14 24 23 31 21 15 -6 63 31
63 50 0 8 5 14 10 14 6 0 10 8 10 18 0 10 4 22 9 28 5 5 11 17 13 28 2 11 17
23 38 30 19 6 39 21 45 33 5 12 19 27 31 33 12 7 27 31 35 54 12 40 47 81 95
113 20 13 24 24 24 64 0 45 3 51 27 60 44 16 92 79 62 79 -6 0 -1 10 11 22 19
21 24 42 21 80 -1 10 8 23 23 29 13 6 30 25 37 40 8 20 18 29 35 29 17 0 25 7
30 25 3 13 9 24 13 24 3 -1 16 2 28 6 27 9 38 37 24 64 -15 27 -14 41 2 41 8
0 19 12 26 26 6 15 23 35 36 46 14 11 25 28 25 38 0 28 11 51 21 44 5 -3 9 15
9 40 0 25 4 46 10 46 6 0 7 28 4 70 -4 55 -1 75 12 95 10 15 18 38 20 53 1 15
3 36 4 47 l1 20 9 -20 c6 -14 9 -16 10 -5 1 8 6 4 10 -10 l8 -25 1 27 c1 14 4
34 8 44 4 12 3 15 -5 10 -9 -5 -12 7 -12 43 0 48 1 51 26 51 22 0 25 -3 21
-22 -6 -22 -6 -22 8 -4 11 14 12 22 4 27 -7 4 -9 20 -5 40 5 26 17 41 51 62
35 23 47 38 56 70 7 23 19 48 27 54 23 19 41 79 47 158 6 63 12 78 39 88 5 1
12 24 16 49 4 31 3 45 -3 41 -6 -4 -7 3 -3 18 5 13 10 40 13 59 3 19 14 46 24
60 22 30 36 95 38 175 1 33 5 71 10 85 18 51 32 138 41 255 6 74 17 142 30
177 11 32 24 97 28 145 10 97 8 734 -1 771 -3 13 -7 73 -8 134 -1 98 -3 111
-20 115 -23 6 -28 34 -28 163 0 172 -10 251 -36 285 -20 27 -23 46 -28 160 -3
79 -10 131 -16 133 -6 2 -11 15 -11 28 0 13 -5 24 -11 24 -7 0 -9 14 -7 38 5
39 -8 92 -23 92 -17 0 -31 40 -19 55 9 10 8 19 -3 37 -9 13 -20 49 -27 80 -6
31 -18 62 -26 68 -7 7 -14 19 -14 26 0 8 -11 35 -24 62 -13 26 -29 75 -35 109
-10 53 -41 135 -41 109 0 -23 -29 31 -30 55 0 14 -4 29 -8 35 -5 5 -15 28 -22
52 -8 26 -25 51 -42 63 -19 14 -28 29 -28 48 0 27 -15 67 -45 121 -11 19 -11
26 -2 32 9 6 9 8 -1 8 -8 0 -10 5 -6 12 5 8 2 9 -9 5 -12 -4 -17 -1 -18 11 0
11 -2 13 -6 4 -9 -22 -30 29 -38 94 -5 32 -10 51 -13 41 -3 -14 -8 -9 -23 21
-11 21 -30 44 -43 50 -18 8 -26 22 -31 53 -9 55 -20 74 -72 124 -23 23 -45 55
-49 71 -10 43 -54 114 -70 114 -8 0 -24 20 -36 45 -12 25 -30 47 -40 51 -10 3
-18 12 -18 20 0 27 -170 274 -219 318 -11 11 -21 22 -21 26 0 11 -74 86 -93
93 -9 3 -17 12 -17 18 0 12 -89 99 -101 99 -3 0 -13 18 -21 39 -11 26 -27 45
-49 56 -19 10 -57 42 -85 71 -28 30 -55 54 -59 54 -13 0 -82 74 -98 106 -9 18
-29 36 -45 42 -15 5 -42 23 -58 40 -17 17 -47 37 -67 46 -21 8 -37 19 -37 24
0 5 -13 15 -30 22 -16 7 -30 19 -30 27 0 17 -65 83 -82 83 -26 1 -93 52 -134
103 -6 7 -36 19 -66 25 -46 11 -57 18 -70 45 -12 25 -25 35 -62 45 -28 7 -58
24 -74 42 -16 17 -44 33 -70 38 -23 6 -50 20 -60 32 -11 13 -33 23 -60 27 -27
4 -46 12 -49 22 -8 21 -44 61 -55 61 -5 0 -36 18 -69 40 -35 23 -72 40 -89 40
-16 0 -35 7 -44 15 -8 8 -20 15 -26 15 -6 0 -13 7 -16 15 -7 17 -74 49 -125
60 -18 4 -53 18 -78 31 -25 14 -70 32 -101 41 -30 9 -59 22 -65 29 -5 7 -58
28 -116 47 -58 19 -116 40 -127 46 -11 6 -38 13 -59 16 -21 2 -49 9 -63 14
-14 5 -47 15 -75 22 -27 6 -63 18 -78 26 -15 8 -63 18 -107 23 -44 5 -93 16
-109 25 -17 8 -50 15 -74 15 -23 0 -47 4 -52 9 -6 5 -35 12 -65 15 -71 8 -95
13 -117 24 -10 5 -31 8 -48 8 -16 -1 -33 4 -37 9 -4 6 -106 12 -252 15 -219 4
-246 7 -264 23 -18 17 -43 19 -199 23 -98 3 -208 6 -245 8 -37 2 -69 2 -70 1z"/>
<path d="M1114 7141 c0 -19 5 -27 13 -24 17 7 16 28 -1 42 -11 9 -13 6 -12
-18z"/>
<path d="M1113 7085 c0 -8 4 -12 9 -9 5 3 6 10 3 15 -9 13 -12 11 -12 -6z"/>
<path d="M975 6410 c3 -5 8 -10 11 -10 2 0 4 5 4 10 0 6 -5 10 -11 10 -5 0 -7
-4 -4 -10z"/>
<path d="M1031 6064 c0 -11 3 -14 6 -6 3 7 2 16 -1 19 -3 4 -6 -2 -5 -13z"/>
<path d="M1050 6060 c0 -5 5 -10 11 -10 5 0 7 5 4 10 -3 6 -8 10 -11 10 -2 0
-4 -4 -4 -10z"/>
<path d="M1031 6014 c0 -11 3 -14 6 -6 3 7 2 16 -1 19 -3 4 -6 -2 -5 -13z"/>
<path d="M1117 5784 c-8 -8 1 -24 14 -24 5 0 9 7 9 15 0 15 -12 20 -23 9z"/>
<path d="M11270 3560 c0 -5 5 -10 11 -10 5 0 7 5 4 10 -3 6 -8 10 -11 10 -2 0
-4 -4 -4 -10z"/>
<path d="M5938 903 c6 -2 18 -2 25 0 6 3 1 5 -13 5 -14 0 -19 -2 -12 -5z"/>
</g>
</svg>
